<svg width="1923" height="603" viewBox="0 0 1923 603" fill="none" xmlns="http://www.w3.org/2000/svg">
<path d="M1889.45 5.64145L1874.53 1.25967M1889.45 5.64145H1845.25M1889.45 5.64145L1904.85 10.1679M1889.45 5.64145H1920.74M1831.03 1.25967H1874.53L1879.95 1.26138L1885.33 1.27087L1890.58 1.29755L1895.67 1.35008L1900.55 1.43534L1905.15 1.56368L1909.42 1.74195L1913.39 1.96928L1916.79 2.28364L1919.89 2.64793L1920.74 2.77553V5.64145M1845.25 5.64145L1831.03 1.25967M1845.25 5.64145H1801.05M1845.25 5.64145L1848.86 6.75929L1859.91 10.1679M1904.85 10.1679H1859.91M1904.85 10.1679L1920.74 14.8362M1904.85 10.1679H1920.74M1920.74 5.64145V10.1679M1831.03 1.25967H1787.55M1801.05 5.64145L1787.55 1.25967M1801.05 5.64145H1756.85M1801.05 5.64145L1814.98 10.1679M1859.91 10.1679L1875.09 14.8477M1859.91 10.1679H1814.98M1920.74 14.8362L1920.78 14.8477H1920.74M1920.74 14.8362V14.8477M1920.74 14.8362V10.1679M1787.55 1.25967H1744.06M1744.06 1.25967H1700.57M1744.06 1.25967L1756.85 5.64145M1700.57 1.25967H1657.09M1700.57 1.25967L1712.65 5.64145M1756.85 5.64145H1712.65M1756.85 5.64145L1770.06 10.1679M1814.98 10.1679H1770.06M1814.98 10.1679L1829.39 14.8477M1657.09 1.25967H1613.59M1657.09 1.25967L1668.45 5.64145M1712.65 5.64145H1668.45M1712.65 5.64145L1725.11 10.1679M1770.06 10.1679H1725.11M1770.06 10.1679L1783.71 14.8477M1613.59 1.25967H1570.1M1613.59 1.25967L1624.25 5.64145M1668.45 5.64145H1624.25M1668.45 5.64145L1671.34 6.75929L1672.81 7.32079L1680.19 10.1679M1725.11 10.1679L1738.02 14.8477M1725.11 10.1679H1680.19M1570.1 1.25967H1526.62M1570.1 1.25967L1580.05 5.64145M1624.25 5.64145H1580.05M1624.25 5.64145L1626.97 6.75929L1635.26 10.1679M1680.19 10.1679L1692.33 14.8477M1680.19 10.1679H1635.26M1526.62 1.25967H1483.13M1526.62 1.25967L1535.85 5.64145M1580.05 5.64145H1535.85M1580.05 5.64145L1590.33 10.1679M1635.26 10.1679H1590.33M1635.26 10.1679L1646.63 14.8477M1483.13 1.25967H1439.63M1483.13 1.25967L1491.65 5.64145M1535.85 5.64145H1491.65M1535.85 5.64145L1538.21 6.75929L1539.39 7.32079L1545.39 10.1679M1590.33 10.1679H1545.39M1590.33 10.1679L1600.94 14.8477M1439.63 1.25967H1396.15M1439.63 1.25967L1447.45 5.64145M1491.65 5.64145H1447.45M1491.65 5.64145L1500.46 10.1679M1545.39 10.1679L1555.25 14.8477M1545.39 10.1679H1500.46M1396.15 1.25967H1352.66M1396.15 1.25967L1403.25 5.64145M1447.45 5.64145H1403.25M1447.45 5.64145L1449.45 6.75929L1450.45 7.32079L1455.53 10.1679M1500.46 10.1679L1506.11 13.0745L1508.41 14.2535L1509.55 14.8477M1500.46 10.1679H1455.53M1352.66 1.25967H1309.17M1352.66 1.25967L1354.23 2.34219L1356.63 3.98108L1359.05 5.64145M1403.25 5.64145H1359.05M1403.25 5.64145L1404.15 6.19864L1405.06 6.75929L1410.59 10.1679M1455.53 10.1679H1410.59M1455.53 10.1679L1463.87 14.8477M1309.17 1.25967H1265.68M1309.17 1.25967L1310.57 2.34219L1314.85 5.64145M1359.05 5.64145H1314.85M1359.05 5.64145L1360.69 6.75929L1361.5 7.32079L1365.66 10.1679M1410.59 10.1679H1365.66M1410.59 10.1679L1415.3 13.0745L1418.18 14.8477M1265.68 1.25967H1222.19M1265.68 1.25967L1270.65 5.64145M1314.85 5.64145H1270.65M1314.85 5.64145L1320.72 10.1679M1365.66 10.1679L1371.62 14.2535L1372.49 14.8477M1365.66 10.1679H1320.72M1222.19 1.25967H1178.7M1222.19 1.25967L1223.77 2.88646L1225.38 4.53223L1225.91 5.08597L1226.45 5.64145M1270.65 5.64145H1226.45M1270.65 5.64145L1271.29 6.19864L1271.92 6.75929L1272.56 7.32079L1275.79 10.1679M1320.72 10.1679L1324.49 13.0745L1326.79 14.8477M1320.72 10.1679H1275.79M1178.7 1.25967H1135.22M1178.7 1.25967L1180.02 2.88646L1180.47 3.43246L1180.91 3.98108L1182.26 5.64145M1226.45 5.64145H1182.26M1226.45 5.64145L1227.54 6.75929L1228.09 7.32079L1228.64 7.88574L1230.86 10.1679M1275.79 10.1679H1230.86M1275.79 10.1679L1281.1 14.8477M1135.22 1.25967H1091.73M1135.22 1.25967L1138.06 5.64145M1182.26 5.64145H1138.06M1182.26 5.64145L1183.16 6.75929L1185 9.02168L1185.46 9.59352L1185.93 10.1679M1230.86 10.1679H1185.93M1230.86 10.1679L1233.68 13.0745L1235.41 14.8477M1091.73 1.25967L1091.99 1.79963L1092.25 2.34219L1093.59 5.08597L1093.86 5.64145M1091.73 1.25967H1048.24M1138.06 5.64145H1093.86M1138.06 5.64145L1138.42 6.19864L1138.78 6.75929L1139.15 7.32079L1140.99 10.1679M1185.93 10.1679L1186.86 11.3228L1189.72 14.8477M1185.93 10.1679H1140.99M1093.86 5.64145H1049.66M1093.86 5.64145L1096.06 10.1679M1048.24 1.25967H1004.75M1048.24 1.25967L1049.66 5.64145M1140.99 10.1679L1141.37 10.7441L1144.03 14.8477M1140.99 10.1679H1096.06M1049.66 5.64145H1005.46M1049.66 5.64145L1049.84 6.19864L1050.02 6.75929L1050.2 7.32079L1051.13 10.1679M1096.06 10.1679H1051.13M1096.06 10.1679L1096.62 11.3228L1096.9 11.9041L1097.47 13.0745L1098.05 14.2535L1098.33 14.8477M1004.75 1.25967H961.26M1004.75 1.25967L1005.01 2.88646L1005.46 5.64145M961.26 1.25967H917.772M961.26 1.25967V5.64145M1005.46 5.64145H961.26M1005.46 5.64145L1006.19 10.1679M1051.13 10.1679H1006.19M1051.13 10.1679L1051.69 11.9041L1052.45 14.2535L1052.64 14.8477M917.772 1.25967H874.281M917.772 1.25967L917.508 2.88646L917.061 5.64145M961.26 5.64145H917.061M961.26 5.64145V10.1679M1006.19 10.1679L1006.29 10.7441L1006.38 11.3228L1006.47 11.9041L1006.57 12.488L1006.67 13.0745L1006.95 14.8477M1006.19 10.1679H961.26M874.281 1.25967H830.793M874.281 1.25967L872.861 5.64145M917.061 5.64145H872.861M917.061 5.64145L916.327 10.1679M961.26 10.1679V14.8477M961.26 10.1679H916.327M830.793 1.25967L830.531 1.79963L830.268 2.34219L828.933 5.08597L828.663 5.64145M830.793 1.25967H787.305M872.861 5.64145H828.663M872.861 5.64145L872.681 6.19864L872.5 6.75929L872.317 7.32079L871.765 9.02168L871.395 10.1679M916.327 10.1679H871.395M916.327 10.1679L915.952 12.488L915.856 13.0745L915.569 14.8477M828.663 5.64145H784.463M828.663 5.64145L826.461 10.1679M787.305 1.25967H743.815M787.305 1.25967L784.824 5.08597L784.463 5.64145M871.395 10.1679H826.461M871.395 10.1679L870.831 11.9041L870.069 14.2535L869.877 14.8477M784.463 5.64145H740.264M784.463 5.64145L784.101 6.19864L783.739 6.75929L783.373 7.32079L781.528 10.1679M826.461 10.1679L825.899 11.3228L825.048 13.0745L824.473 14.2535L824.185 14.8477M826.461 10.1679H781.528M743.815 1.25967H700.327M743.815 1.25967L742.497 2.88646L742.055 3.43246L741.163 4.53223L740.715 5.08597L740.264 5.64145M700.327 1.25967H656.837M700.327 1.25967L698.745 2.88646L697.143 4.53223L696.605 5.08597L696.065 5.64145M740.264 5.64145H696.065M740.264 5.64145L739.359 6.75929L737.524 9.02168L736.595 10.1679M781.528 10.1679L779.644 13.0745L778.879 14.2535L778.493 14.8477M781.528 10.1679H736.595M656.837 1.25967H613.349M656.837 1.25967L651.867 5.64145M696.065 5.64145H651.867M696.065 5.64145L694.979 6.75929L694.431 7.32079L693.883 7.88574L691.663 10.1679M736.595 10.1679H691.663M736.595 10.1679L735.659 11.3228L732.803 14.8477M613.349 1.25967H569.86M613.349 1.25967L611.947 2.34219L607.668 5.64145M651.867 5.64145L651.233 6.19864L646.729 10.1679M651.867 5.64145H607.668M691.663 10.1679H646.729M691.663 10.1679L688.836 13.0745L687.111 14.8477M569.86 1.25967H526.371M569.86 1.25967L563.468 5.64145M607.668 5.64145H563.468M607.668 5.64145L606.944 6.19864L601.796 10.1679M646.729 10.1679L641.419 14.8477M646.729 10.1679H601.796M526.371 1.25967H482.883M526.371 1.25967L519.269 5.64145M563.468 5.64145H519.269M563.468 5.64145L561.837 6.75929L561.016 7.32079L556.864 10.1679M601.796 10.1679L598.028 13.0745L595.728 14.8477M601.796 10.1679H556.864M482.883 1.25967H439.393M482.883 1.25967L475.069 5.64145M519.269 5.64145H475.069M519.269 5.64145L518.364 6.19864L517.457 6.75929L511.931 10.1679M556.864 10.1679H511.931M556.864 10.1679L550.903 14.2535L550.036 14.8477M439.393 1.25967H395.904M439.393 1.25967L430.871 5.64145M475.069 5.64145H430.871M475.069 5.64145L473.077 6.75929L472.073 7.32079L466.997 10.1679M511.931 10.1679H466.997M511.931 10.1679L507.22 13.0745L504.344 14.8477M395.904 1.25967H352.416M395.904 1.25967L386.672 5.64145M430.871 5.64145H386.672M430.871 5.64145L429.785 6.19864L422.064 10.1679M466.997 10.1679L458.653 14.8477M466.997 10.1679H422.064M352.416 1.25967H308.928M352.416 1.25967L342.472 5.64145M386.672 5.64145H342.472M386.672 5.64145L384.316 6.75929L383.131 7.32079L377.132 10.1679M422.064 10.1679L414.116 14.2535L412.961 14.8477M422.064 10.1679H377.132M308.928 1.25967H265.437M308.928 1.25967L298.273 5.64145M342.472 5.64145H298.273M342.472 5.64145L332.199 10.1679M377.132 10.1679H332.199M377.132 10.1679L368.52 14.2535L367.269 14.8477M265.437 1.25967H221.949M265.437 1.25967L254.073 5.64145M298.273 5.64145H254.073M298.273 5.64145L295.556 6.75929L287.267 10.1679M332.199 10.1679H287.267M332.199 10.1679L321.579 14.8477M221.949 1.25967H178.46M221.949 1.25967L209.875 5.64145M254.073 5.64145H209.875M254.073 5.64145L251.176 6.75929L249.716 7.32079L242.333 10.1679M287.267 10.1679L275.887 14.8477M287.267 10.1679H242.333M178.46 1.25967H134.971M178.46 1.25967L165.676 5.64145M209.875 5.64145H165.676M209.875 5.64145L197.4 10.1679M242.333 10.1679L230.195 14.8477M242.333 10.1679H197.4M134.971 1.25967H91.4824M134.971 1.25967L121.477 5.64145M165.676 5.64145H121.477M165.676 5.64145L152.467 10.1679M197.4 10.1679H152.467M197.4 10.1679L184.504 14.8477M1.77674 5.64145V2.77555L2.62828 2.64793L5.72661 2.28364L9.12977 1.96928L13.0956 1.74195L17.3683 1.56368L21.9688 1.43534L26.8423 1.35008L31.9365 1.29755L37.1956 1.27087L42.5668 1.26138L47.9939 1.25967H91.4824M91.4824 1.25967L77.2781 5.64145M121.477 5.64145H77.2781M121.477 5.64145L107.534 10.1679M152.467 10.1679H107.534M152.467 10.1679L138.812 14.8477M47.9939 1.25967L33.0788 5.64145M77.2781 5.64145H33.0788M77.2781 5.64145L73.654 6.75929L62.6009 10.1679M107.534 10.1679L93.1205 14.8477M107.534 10.1679H62.6009M1.77674 5.64145H33.0788M1.77674 5.64145V10.1679M33.0788 5.64145L17.6681 10.1679M62.6009 10.1679L47.4292 14.8477M62.6009 10.1679H17.6681M1.77674 10.1679H17.6681M1.77674 10.1679V14.8362M17.6681 10.1679L1.77674 14.8362M93.1205 14.8477L78.2116 19.6876M93.1205 14.8477H138.812M93.1205 14.8477H47.4292M138.812 14.8477L124.689 19.6876M138.812 14.8477H184.504M275.887 14.8477L264.116 19.6876M275.887 14.8477H321.579M275.887 14.8477H230.195M321.579 14.8477L310.592 19.6876M321.579 14.8477H367.269M458.653 14.8477L450.021 19.6876M458.653 14.8477H504.344M458.653 14.8477H412.961M504.344 14.8477L496.499 19.6876M504.344 14.8477H550.036M641.419 14.8477L635.927 19.6876M641.419 14.8477H687.111M641.419 14.8477H595.728M687.111 14.8477L682.403 19.6876M687.111 14.8477H732.803M824.185 14.8477L823.895 15.4436L821.831 19.6876M824.185 14.8477H869.877M824.185 14.8477H778.493M869.877 14.8477L869.684 15.4436L869.099 17.247L868.903 17.8533L868.705 18.4621L868.507 19.0736L868.307 19.6876M869.877 14.8477H915.569M1006.95 14.8477L1007.44 17.8533L1007.54 18.4621L1007.64 19.0736L1007.74 19.6876M1006.95 14.8477H1052.64M1006.95 14.8477H961.26M1052.64 14.8477L1052.84 15.4436L1053.42 17.247L1053.62 17.8533L1053.81 18.4621L1054.21 19.6876M1052.64 14.8477H1098.33M1189.72 14.8477L1190.2 15.4436L1190.69 16.0421L1191.66 17.247L1193.64 19.6876M1189.72 14.8477H1235.41M1189.72 14.8477H1144.03M1235.41 14.8477L1240.12 19.6876M1235.41 14.8477H1281.1M1372.49 14.8477L1373.35 15.4436L1379.54 19.6876M1372.49 14.8477H1418.18M1372.49 14.8477H1326.79M1418.18 14.8477L1426.02 19.6876M1418.18 14.8477H1463.87M1555.25 14.8477L1565.45 19.6876M1555.25 14.8477H1600.94M1555.25 14.8477H1509.55M1600.94 14.8477L1611.93 19.6876M1600.94 14.8477H1646.63M1738.02 14.8477L1751.35 19.6876M1738.02 14.8477H1783.71M1738.02 14.8477H1692.33M1783.71 14.8477L1797.83 19.6876M1783.71 14.8477H1829.39M1.62182 46.6174H1.77674M1.77674 46.6174H46.1088M1.77674 46.6174V52.6217M1.77674 46.6174V44.5032M46.1088 46.6174L62.9837 40.8343M46.1088 46.6174L28.5873 52.6217M46.1088 46.6174H96.9505M1.77674 52.6217H28.5873M1.77674 52.6217V58.8611M1.77674 44.5032L13.0796 40.8343M1.77674 44.5032V40.8343M62.9837 40.8343H13.0796M62.9837 40.8343L79.248 35.2607M62.9837 40.8343H112.888M28.5873 52.6217L10.3821 58.8611M28.5873 52.6217H80.4024M96.9505 46.6174L112.888 40.8343M96.9505 46.6174L80.4024 52.6217M96.9505 46.6174H147.792M13.0796 40.8343L30.2473 35.2607M13.0796 40.8343H1.77674M79.248 35.2607L94.9336 29.8852M79.248 35.2607H128.249M79.248 35.2607H30.2473M112.888 40.8343L128.249 35.2607M112.888 40.8343H162.792M10.3821 58.8611H63.2087M10.3821 58.8611L1.77674 61.8097M10.3821 58.8611H1.77674M80.4024 52.6217H132.217M80.4024 52.6217L63.2087 58.8611M147.792 46.6174H198.633M147.792 46.6174L162.792 40.8343M147.792 46.6174L132.217 52.6217M30.2473 35.2607L46.8035 29.8852M30.2473 35.2607H1.77674M1.77674 40.8343V35.2607M94.9336 29.8852L110.07 24.6972M94.9336 29.8852H46.8035M94.9336 29.8852H143.063M128.249 35.2607H177.249M128.249 35.2607L143.063 29.8852M162.792 40.8343H212.696M162.792 40.8343L177.249 35.2607M46.8035 29.8852L62.7819 24.6972M46.8035 29.8852H1.77674M1.77674 35.2607V29.8852M62.7819 24.6972H110.07M62.7819 24.6972L78.2116 19.6876M62.7819 24.6972H15.4944M110.07 24.6972L124.689 19.6876M110.07 24.6972H157.359M78.2116 19.6876H124.689M78.2116 19.6876H31.7356M15.4944 24.6972L31.7356 19.6876M15.4944 24.6972H1.77674M15.4944 24.6972L1.77674 28.928M124.689 19.6876H171.164M157.359 24.6972L171.164 19.6876M157.359 24.6972L143.063 29.8852M157.359 24.6972H204.648M31.7356 19.6876L47.4292 14.8477M31.7356 19.6876H1.77674M1.77674 24.6972V28.928M1.77674 24.6972V19.6876M1.77674 28.928V29.8852M171.164 19.6876H217.64M171.164 19.6876L184.504 14.8477M143.063 29.8852H191.192M204.648 24.6972H251.935M204.648 24.6972L217.64 19.6876M204.648 24.6972L191.192 29.8852M47.4292 14.8477H1.77674M1.77674 19.6876V14.8477M217.64 19.6876H264.116M217.64 19.6876L230.195 14.8477M184.504 14.8477H230.195M1.29 137.896H1.77674M1.77674 137.896H42.3139M1.77674 137.896V128.308M1.77674 137.896V147.961M42.3139 137.896L64.0741 128.308M42.3139 137.896L19.4721 147.961M42.3139 137.896H107.954M1.77674 128.308H64.0741M1.77674 128.308V127.573M1.77674 147.961H19.4721M1.77674 147.961V155.757M64.0741 128.308L84.828 119.164M64.0741 128.308H128.159M19.4721 147.961H86.7429M19.4721 147.961L1.77674 155.757M107.954 137.896L128.159 128.308M107.954 137.896L86.7429 147.961M107.954 137.896H173.592M84.828 119.164H22.2257M84.828 119.164L104.642 110.433M84.828 119.164H147.431M128.159 128.308L147.431 119.164M128.159 128.308H192.244M86.7429 147.961H154.013M86.7429 147.961L64.4509 158.538M1.77674 155.757L1.58184 155.843M1.77674 155.757V158.538M173.592 137.896H239.231M173.592 137.896L192.244 128.308M173.592 137.896L154.013 147.961M22.2257 119.164L43.4563 110.433M22.2257 119.164H1.77674M22.2257 119.164L1.77674 127.573M104.642 110.433H43.4563M104.642 110.433L123.581 102.088M104.642 110.433H165.829M147.431 119.164H210.032M147.431 119.164L165.829 110.433M192.244 128.308H256.328M192.244 128.308L210.032 119.164M1.77674 127.573V119.164M43.4563 110.433L63.7473 102.088M43.4563 110.433H1.77674M1.77674 119.164V110.433M63.7473 102.088H123.581M63.7473 102.088L83.1609 94.1049M63.7473 102.088H3.91358M1.77674 110.433V102.912M123.581 102.088L141.701 94.1049M123.581 102.088H183.416M83.1609 94.1049H141.701M83.1609 94.1049H24.6215M83.1609 94.1049L101.753 86.4591M3.91358 102.088L24.6215 94.1049M3.91358 102.088H1.77674M3.91358 102.088L1.77674 102.912M141.701 94.1049L159.053 86.4591M141.701 94.1049H200.241M183.416 102.088L200.241 94.1049M183.416 102.088L165.829 110.433M183.416 102.088H243.249M24.6215 94.1049L44.4528 86.4591M24.6215 94.1049H1.77674M101.753 86.4591H159.053M101.753 86.4591H44.4528M101.753 86.4591L119.573 79.1303M1.77674 102.088V94.1049M1.77674 102.088V102.912M1.77674 102.912L1.26001 103.111M159.053 86.4591L175.687 79.1303M159.053 86.4591H216.355M200.241 94.1049L216.355 86.4591M200.241 94.1049H258.781M165.829 110.433H227.016M243.249 102.088H303.084M243.249 102.088L258.781 94.1049M243.249 102.088L227.016 110.433M44.4528 86.4591L63.4615 79.1303M44.4528 86.4591H1.77674M1.77674 94.1049V86.4591M119.573 79.1303L136.671 72.0993M119.573 79.1303H175.687M119.573 79.1303H63.4615M175.687 79.1303L191.643 72.0993M175.687 79.1303H231.799M216.355 86.4591H273.655M216.355 86.4591L231.799 79.1303M258.781 94.1049H317.321M258.781 94.1049L273.655 86.4591M136.671 72.0993H191.643M136.671 72.0993L153.087 65.3484M136.671 72.0993H81.6977M191.643 72.0993L206.964 65.3484M191.643 72.0993H246.616M153.087 65.3484H206.964M153.087 65.3484H99.2083M153.087 65.3484L168.861 58.8611M81.6977 72.0993H26.7253M81.6977 72.0993L99.2083 65.3484M81.6977 72.0993L63.4615 79.1303M206.964 65.3484L221.688 58.8611M206.964 65.3484H260.843M246.616 72.0993L260.843 65.3484M246.616 72.0993L231.799 79.1303M246.616 72.0993H301.588M99.2083 65.3484H45.3303M99.2083 65.3484L116.035 58.8611M168.861 58.8611H221.688M168.861 58.8611H116.035M168.861 58.8611L184.032 52.6217M26.7253 72.0993L45.3303 65.3484M26.7253 72.0993L7.34873 79.1303M26.7253 72.0993H1.77674M63.4615 79.1303H7.34873M221.688 58.8611L235.848 52.6217M221.688 58.8611H274.515M260.843 65.3484L274.515 58.8611M260.843 65.3484H314.721M231.799 79.1303H287.911M301.588 72.0993H356.561M301.588 72.0993L314.721 65.3484M301.588 72.0993L287.911 79.1303M45.3303 65.3484L63.2087 58.8611M45.3303 65.3484H1.77674M116.035 58.8611L132.217 52.6217M116.035 58.8611H63.2087M184.032 52.6217L198.633 46.6174M184.032 52.6217H235.848M184.032 52.6217H132.217M235.848 52.6217L249.475 46.6174M235.848 52.6217H287.663M274.515 58.8611H327.341M274.515 58.8611L287.663 52.6217M314.721 65.3484H368.599M314.721 65.3484L327.341 58.8611M198.633 46.6174H249.475M198.633 46.6174L212.696 40.8343M249.475 46.6174L262.6 40.8343M249.475 46.6174H300.317M212.696 40.8343H262.6M212.696 40.8343L226.249 35.2607M262.6 40.8343L275.251 35.2607M262.6 40.8343H312.504M300.317 46.6174L312.504 40.8343M300.317 46.6174L287.663 52.6217M300.317 46.6174H351.159M226.249 35.2607H275.251M226.249 35.2607H177.249M226.249 35.2607L239.321 29.8852M275.251 35.2607L287.449 29.8852M275.251 35.2607H324.251M312.504 40.8343L324.251 35.2607M312.504 40.8343H362.409M287.663 52.6217H339.477M351.159 46.6174H402M351.159 46.6174L361.025 41.545L362.409 40.8343M351.159 46.6174L339.477 52.6217M177.249 35.2607L191.192 29.8852M239.321 29.8852L251.935 24.6972M239.321 29.8852H287.449M239.321 29.8852H191.192M287.449 29.8852L299.224 24.6972M287.449 29.8852H335.58M324.251 35.2607H373.252M324.251 35.2607L335.58 29.8852M362.409 40.8343H412.313M362.409 40.8343L373.252 35.2607M251.935 24.6972H299.224M251.935 24.6972L264.116 19.6876M299.224 24.6972L310.592 19.6876M299.224 24.6972H346.512M264.116 19.6876H310.592M310.592 19.6876H357.069M346.512 24.6972L357.069 19.6876M346.512 24.6972L335.58 29.8852M346.512 24.6972H393.8M357.069 19.6876H403.545M357.069 19.6876L367.269 14.8477M335.58 29.8852H383.709M393.8 24.6972H441.088M393.8 24.6972L403.545 19.6876M393.8 24.6972L383.709 29.8852M403.545 19.6876H450.021M403.545 19.6876L412.961 14.8477M367.269 14.8477H412.961M35.4056 304.121L66.0312 285.226M35.4056 304.121L2.60929 324.349M35.4056 304.121H127.991M35.4056 304.121H1.77674M66.0312 285.226L94.6967 267.545M66.0312 285.226H155.553M66.0312 285.226H1.77674M2.60929 324.349H98.4747M2.60929 324.349H1.77674M2.60929 324.349L1.77674 324.864M127.991 304.121L155.553 285.226M127.991 304.121L98.4747 324.349M127.991 304.121H220.576M1.77674 304.121V324.349M1.77674 304.121V285.226M94.6967 267.545L121.582 250.96M94.6967 267.545H181.353M94.6967 267.545H8.04036M155.553 285.226L181.353 267.545M155.553 285.226H245.077M1.77674 285.226V271.058M98.4747 324.349H194.339M98.4747 324.349L66.7897 346.066M1.77674 324.349V324.864M1.77674 324.864V346.066M220.576 304.121H313.163M220.576 304.121L245.077 285.226M220.576 304.121L194.339 324.349M121.582 250.96L146.851 235.373M121.582 250.96H37.6144M121.582 250.96H205.549M181.353 267.545H268.009M181.353 267.545L205.549 250.96M8.04036 267.545L37.6144 250.96M8.04036 267.545H1.77674M8.04036 267.545L1.77674 271.058M245.077 285.226H334.6M245.077 285.226L268.009 267.545M1.77674 271.058V267.545M65.4095 235.373H146.851M65.4095 235.373L91.5804 220.697M65.4095 235.373L37.6144 250.96M65.4095 235.373H1.77674M146.851 235.373L170.641 220.697M146.851 235.373H228.292M91.5804 220.697H170.641M91.5804 220.697H12.519M91.5804 220.697L116.266 206.853M37.6144 250.96H1.77674M1.77674 235.373V250.96M1.77674 235.373V226.219M170.641 220.697L193.084 206.853M170.641 220.697H249.704M228.292 235.373L249.704 220.697M228.292 235.373L205.549 250.96M228.292 235.373H309.733M12.519 220.697L39.4484 206.853M12.519 220.697H1.77674M12.519 220.697L1.77674 226.219M116.266 206.853H193.084M116.266 206.853H39.4484M116.266 206.853L139.588 193.775M1.77674 250.96V267.545M1.77674 226.219V220.697M193.084 206.853L214.285 193.775M193.084 206.853H269.901M249.704 220.697L269.901 206.853M249.704 220.697H328.765M205.549 250.96H289.517M309.733 235.373H391.173M309.733 235.373L328.765 220.697M309.733 235.373L289.517 250.96M39.4484 206.853L64.8908 193.775M39.4484 206.853H1.77674M1.77674 220.697V206.853M139.588 193.775L161.657 181.398M139.588 193.775H214.285M139.588 193.775H64.8908M214.285 193.775L234.349 181.398M214.285 193.775H288.983M269.901 206.853H346.719M269.901 206.853L288.983 193.775M328.765 220.697H407.828M328.765 220.697L346.719 206.853M161.657 181.398H234.349M161.657 181.398L182.573 169.669M161.657 181.398H88.9668M234.349 181.398L253.363 169.669M234.349 181.398H307.04M182.573 169.669H253.363M182.573 169.669H111.783M182.573 169.669L202.421 158.538M88.9668 181.398H16.2759M88.9668 181.398L111.783 169.669M88.9668 181.398L64.8908 193.775M253.363 169.669L271.408 158.538M253.363 169.669H324.152M307.04 181.398L324.152 169.669M307.04 181.398L288.983 193.775M307.04 181.398H379.731M111.783 169.669H40.9936M111.783 169.669L133.437 158.538M202.421 158.538H271.408M202.421 158.538H133.437M202.421 158.538L221.284 147.961M16.2759 181.398L40.9936 169.669M16.2759 181.398H1.77674M16.2759 181.398L1.77674 188.278M64.8908 193.775H1.77674M271.408 158.538L288.555 147.961M271.408 158.538H340.392M324.152 169.669L340.392 158.538M324.152 169.669H394.943M288.983 193.775H363.681M379.731 181.398H452.423M379.731 181.398L394.943 169.669M379.731 181.398L363.681 193.775M40.9936 169.669L64.4509 158.538M40.9936 169.669H1.77674M133.437 158.538L154.013 147.961M133.437 158.538H64.4509M221.284 147.961L239.231 137.896M221.284 147.961H288.555M221.284 147.961H154.013M288.555 147.961L304.871 137.896M288.555 147.961H355.825M340.392 158.538H409.379M340.392 158.538L355.825 147.961M394.943 169.669H465.732M394.943 169.669L409.379 158.538M239.231 137.896H304.871M239.231 137.896L256.328 128.308M304.871 137.896L320.413 128.308M304.871 137.896H370.509M256.328 128.308H320.413M256.328 128.308L272.635 119.164M320.413 128.308L335.237 119.164M320.413 128.308H384.497M370.509 137.896L384.497 128.308M370.509 137.896L355.825 147.961M370.509 137.896H436.148M272.635 119.164H335.237M272.635 119.164H210.032M272.635 119.164L288.204 110.433M335.237 119.164L349.391 110.433M335.237 119.164H397.84M384.497 128.308L397.84 119.164M384.497 128.308H448.583M355.825 147.961H423.096M436.148 137.896H501.788M436.148 137.896L448.583 128.308M436.148 137.896L423.096 147.961M210.032 119.164L227.016 110.433M288.204 110.433L303.084 102.088M288.204 110.433H349.391M288.204 110.433H227.016M349.391 110.433L362.919 102.088M349.391 110.433H410.577M397.84 119.164H460.441M397.84 119.164L410.577 110.433M448.583 128.308H512.668M448.583 128.308L460.441 119.164M303.084 102.088H362.919M303.084 102.088L317.321 94.1049M362.919 102.088L375.861 94.1049M362.919 102.088H422.752M317.321 94.1049H375.861M317.321 94.1049L330.955 86.4591M375.861 94.1049L388.256 86.4591M375.861 94.1049H434.401M422.752 102.088L434.401 94.1049M422.752 102.088L410.577 110.433M422.752 102.088H482.587M330.955 86.4591H388.256M330.955 86.4591H273.655M330.955 86.4591L344.024 79.1303M388.256 86.4591L400.136 79.1303M388.256 86.4591H445.556M434.401 94.1049L445.556 86.4591M434.401 94.1049H492.94M410.577 110.433H471.764M482.587 102.088H542.42M482.587 102.088L492.94 94.1049M482.587 102.088L471.764 110.433M273.655 86.4591L287.911 79.1303M344.024 79.1303L356.561 72.0993M344.024 79.1303H400.136M344.024 79.1303H287.911M400.136 79.1303L411.533 72.0993M400.136 79.1303H456.248M445.556 86.4591H502.856M445.556 86.4591L456.248 79.1303M492.94 94.1049H551.481M492.94 94.1049L502.856 86.4591M356.561 72.0993H411.533M356.561 72.0993L368.599 65.3484M411.533 72.0993L412.927 71.2407L422.477 65.3484M411.533 72.0993H466.507M368.599 65.3484H422.477M368.599 65.3484L380.168 58.8611M422.477 65.3484L432.995 58.8611M422.477 65.3484H476.356M466.507 72.0993L476.356 65.3484M466.507 72.0993L456.248 79.1303M466.507 72.0993H521.479M380.168 58.8611H432.995M380.168 58.8611H327.341M380.168 58.8611L391.293 52.6217M432.995 58.8611L441.865 53.3889L443.108 52.6217M432.995 58.8611H485.821M476.356 65.3484L485.821 58.8611M476.356 65.3484H530.235M456.248 79.1303H512.361M521.479 72.0993H576.451M521.479 72.0993L530.235 65.3484M521.479 72.0993L512.361 79.1303M327.341 58.8611L339.477 52.6217M391.293 52.6217L402 46.6174M391.293 52.6217H443.108M391.293 52.6217H339.477M443.108 52.6217L449.236 48.8428L452.843 46.6174M443.108 52.6217H494.923M485.821 58.8611H538.648M485.821 58.8611L494.923 52.6217M530.235 65.3484H584.112M530.235 65.3484L538.648 58.8611M402 46.6174H452.843M402 46.6174L412.313 40.8343M452.843 46.6174L462.217 40.8343M452.843 46.6174H503.684M412.313 40.8343H462.217M412.313 40.8343L422.252 35.2607M462.217 40.8343L471.253 35.2607M462.217 40.8343H512.121M503.684 46.6174L512.121 40.8343M503.684 46.6174L501.524 48.0968L494.923 52.6217M503.684 46.6174H554.527M422.252 35.2607H471.253M422.252 35.2607H373.252M422.252 35.2607L431.839 29.8852M471.253 35.2607L479.967 29.8852M471.253 35.2607H520.253M512.121 40.8343L520.253 35.2607M512.121 40.8343H562.027M494.923 52.6217H546.739M554.527 46.6174H605.368M554.527 46.6174L562.027 40.8343M554.527 46.6174L546.739 52.6217M373.252 35.2607L383.709 29.8852M431.839 29.8852L441.088 24.6972M431.839 29.8852H479.967M431.839 29.8852H383.709M479.967 29.8852L488.377 24.6972M479.967 29.8852H528.096M520.253 35.2607H569.255M520.253 35.2607L528.096 29.8852M562.027 40.8343H611.931M562.027 40.8343L569.255 35.2607M441.088 24.6972H488.377M441.088 24.6972L450.021 19.6876M488.377 24.6972L494.495 20.9243L495.497 20.3042L496.499 19.6876M488.377 24.6972H535.665M450.021 19.6876H496.499M496.499 19.6876H542.975M535.665 24.6972L542.975 19.6876M535.665 24.6972L528.096 29.8852M535.665 24.6972H582.953M542.975 19.6876H589.451M542.975 19.6876L550.036 14.8477M528.096 29.8852H576.225M582.953 24.6972H630.243M582.953 24.6972L589.451 19.6876M582.953 24.6972L576.225 29.8852M589.451 19.6876H635.927M589.451 19.6876L594.179 16.0421L595.728 14.8477M550.036 14.8477H595.728M68.9505 519.326H196.424M68.9505 519.326L109.089 483.956M68.9505 519.326L24.8443 558.195M68.9505 519.326H1.77674M196.424 519.326L230.828 483.956M196.424 519.326L158.619 558.195M196.424 519.326H323.896M109.089 483.956H230.828M109.089 483.956L145.772 451.631M109.089 483.956H1.77674M24.8443 558.195H158.619M24.8443 558.195L1.77674 578.523M24.8443 558.195H1.77674M1.77674 519.326V558.195M1.77674 519.326V483.956M230.828 483.956L262.271 451.631M230.828 483.956H352.567M158.619 558.195L116.881 601.105M158.619 558.195H292.392M323.896 519.326L352.567 483.956M323.896 519.326L292.392 558.195M323.896 519.326H451.369M145.772 451.631H262.271M145.772 451.631H29.2739M145.772 451.631L179.427 421.971M1.77674 483.956V472.833M1.77674 578.523V601.105M1.77674 578.523V558.195M262.271 451.631L291.117 421.971M262.271 451.631H378.769M352.567 483.956L378.769 451.631M352.567 483.956H474.305M116.881 601.105H257.611M116.881 601.105H1.77674M292.392 558.195H426.165M292.392 558.195L257.611 601.105M451.369 519.326H578.841M451.369 519.326L474.305 483.956M451.369 519.326L426.165 558.195M29.2739 451.631L67.7372 421.971M29.2739 451.631H1.77674M29.2739 451.631L1.77674 472.833M179.427 421.971L210.415 394.664M179.427 421.971H291.117M179.427 421.971H67.7372M1.77674 472.833V451.631M291.117 421.971L317.679 394.664M291.117 421.971H402.808M378.769 451.631H495.267M378.769 451.631L402.808 421.971M474.305 483.956H596.044M474.305 483.956L495.267 451.631M210.415 394.664H317.679M210.415 394.664L239.039 369.439M210.415 394.664H103.151M317.679 394.664L342.213 369.439M317.679 394.664H424.941M239.039 369.439H342.213M239.039 369.439H135.864M239.039 369.439L265.561 346.066M103.151 394.664L135.864 369.439M103.151 394.664L67.7372 421.971M103.151 394.664H1.77674M342.213 369.439L364.947 346.066M342.213 369.439H445.388M424.941 394.664L445.388 369.439M424.941 394.664L402.808 421.971M424.941 394.664H532.205M135.864 369.439H32.6901M135.864 369.439L166.176 346.066M265.561 346.066H364.947M265.561 346.066H166.176M265.561 346.066L290.204 324.349M67.7372 421.971H1.77674M1.77674 394.664V390.626M1.77674 394.664V421.971M364.947 346.066L386.069 324.349M364.947 346.066H464.332M445.388 369.439L464.332 346.066M445.388 369.439H548.563M402.808 421.971H514.499M532.205 394.664H639.469M532.205 394.664L548.563 369.439M532.205 394.664L514.499 421.971M32.6901 369.439L66.7897 346.066M32.6901 369.439H1.77674M32.6901 369.439L1.77674 390.626M166.176 346.066L194.339 324.349M166.176 346.066H66.7897M290.204 324.349L313.163 304.121M290.204 324.349H386.069M290.204 324.349H194.339M386.069 324.349L405.747 304.121M386.069 324.349H481.935M464.332 346.066H563.719M464.332 346.066L481.935 324.349M548.563 369.439H651.737M548.563 369.439L563.719 346.066M313.163 304.121H405.747M313.163 304.121L334.6 285.226M405.747 304.121L424.123 285.226M405.747 304.121H498.332M334.6 285.226H424.123M334.6 285.226L354.665 267.545M424.123 285.226L441.323 267.545M424.123 285.226H513.647M498.332 304.121L513.647 285.226M498.332 304.121L481.935 324.349M498.332 304.121H590.919M354.665 267.545H441.323M354.665 267.545H268.009M354.665 267.545L373.485 250.96M441.323 267.545L457.453 250.96M441.323 267.545H527.979M513.647 285.226L527.979 267.545M513.647 285.226H603.169M481.935 324.349H577.8M590.919 304.121H683.504M590.919 304.121L603.169 285.226M590.919 304.121L577.8 324.349M268.009 267.545L289.517 250.96M373.485 250.96L391.173 235.373M373.485 250.96H457.453M373.485 250.96H289.517M457.453 250.96L472.615 235.373M457.453 250.96H541.421M527.979 267.545H614.635M527.979 267.545L541.421 250.96M603.169 285.226H692.692M603.169 285.226L614.635 267.545M391.173 235.373H472.615M391.173 235.373L407.828 220.697M472.615 235.373L486.889 220.697M472.615 235.373H554.055M407.828 220.697H486.889M407.828 220.697L423.536 206.853M486.889 220.697L500.355 206.853M486.889 220.697H565.951M554.055 235.373L565.951 220.697M554.055 235.373L541.421 250.96M554.055 235.373H635.496M423.536 206.853H500.355M423.536 206.853H346.719M423.536 206.853L438.377 193.775M500.355 206.853L513.076 193.775M500.355 206.853H577.172M565.951 220.697L577.172 206.853M565.951 220.697H645.013M541.421 250.96H625.389M635.496 235.373H716.937M635.496 235.373L645.013 220.697M635.496 235.373L625.389 250.96M346.719 206.853L363.681 193.775M438.377 193.775L452.423 181.398M438.377 193.775H513.076M438.377 193.775H363.681M513.076 193.775L525.113 181.398M513.076 193.775H587.773M577.172 206.853H653.989M577.172 206.853L587.773 193.775M645.013 220.697H724.075M645.013 220.697L653.989 206.853M452.423 181.398H525.113M452.423 181.398L465.732 169.669M525.113 181.398L536.521 169.669M525.113 181.398H597.805M465.732 169.669H536.521M465.732 169.669L478.363 158.538M536.521 169.669L547.348 158.538M536.521 169.669H607.312M597.805 181.398L607.312 169.669M597.805 181.398L587.773 193.775M597.805 181.398H670.496M478.363 158.538H547.348M478.363 158.538H409.379M478.363 158.538L490.367 147.961M547.348 158.538L557.636 147.961M547.348 158.538H616.333M607.312 169.669L616.333 158.538M607.312 169.669H678.101M587.773 193.775H662.471M670.496 181.398H743.187M670.496 181.398L678.101 169.669M670.496 181.398L662.471 193.775M409.379 158.538L423.096 147.961M490.367 147.961L501.788 137.896M490.367 147.961H557.636M490.367 147.961H423.096M557.636 147.961L567.427 137.896M557.636 147.961H624.907M616.333 158.538H685.319M616.333 158.538L624.907 147.961M678.101 169.669H748.891M678.101 169.669L685.319 158.538M501.788 137.896H567.427M501.788 137.896L512.668 128.308M567.427 137.896L576.752 128.308M567.427 137.896H633.065M512.668 128.308H576.752M512.668 128.308L523.044 119.164M576.752 128.308L585.647 119.164M576.752 128.308H640.836M633.065 137.896L640.836 128.308M633.065 137.896L624.907 147.961M633.065 137.896H698.704M523.044 119.164H585.647M523.044 119.164H460.441M523.044 119.164L532.952 110.433M585.647 119.164L594.139 110.433M585.647 119.164H648.248M640.836 128.308L645.511 122.543L648.248 119.164M640.836 128.308H704.921M624.907 147.961H692.177M698.704 137.896H764.343M698.704 137.896L704.921 128.308M698.704 137.896L692.177 147.961M460.441 119.164L471.764 110.433M532.952 110.433L542.42 102.088M532.952 110.433H594.139M532.952 110.433H471.764M594.139 110.433L602.256 102.088M594.139 110.433H655.325M648.248 119.164H710.851M648.248 119.164L655.325 110.433M704.921 128.308H769.005M704.921 128.308L710.851 119.164M542.42 102.088H602.256M542.42 102.088L551.481 94.1049M602.256 102.088L610.02 94.1049M602.256 102.088H662.089M551.481 94.1049H610.02M551.481 94.1049L560.157 86.4591M610.02 94.1049L617.457 86.4591M610.02 94.1049H668.561M662.089 102.088L668.561 94.1049M662.089 102.088L660.427 104.14L655.325 110.433M662.089 102.088H721.923M560.157 86.4591H617.457M560.157 86.4591H502.856M560.157 86.4591L568.472 79.1303M617.457 86.4591L621.059 82.7558L624.585 79.1303M617.457 86.4591H674.757M668.561 94.1049L674.757 86.4591M668.561 94.1049H727.1M655.325 110.433H716.512M721.923 102.088H781.757M721.923 102.088L727.1 94.1049M721.923 102.088L721.26 103.111L719.248 106.214L716.512 110.433M502.856 86.4591L512.361 79.1303M568.472 79.1303L576.451 72.0993M568.472 79.1303H624.585M568.472 79.1303H512.361M624.585 79.1303L630.584 72.9622L631.425 72.0993M624.585 79.1303H680.699M674.757 86.4591H732.059M674.757 86.4591L680.699 79.1303M727.1 94.1049H785.641M727.1 94.1049L732.059 86.4591M576.451 72.0993H631.425M576.451 72.0993L584.112 65.3484M631.425 72.0993L637.991 65.3484M631.425 72.0993H686.397M584.112 65.3484H637.991M584.112 65.3484L591.475 58.8611M637.991 65.3484L644.301 58.8611M637.991 65.3484H691.869M686.397 72.0993L691.869 65.3484M686.397 72.0993L680.699 79.1303M686.397 72.0993H741.369M591.475 58.8611H644.301M591.475 58.8611H538.648M591.475 58.8611L598.555 52.6217M680.699 79.1303H736.809M644.301 58.8611L650.369 52.6217M644.301 58.8611H697.127M691.869 65.3484L697.127 58.8611M691.869 65.3484H745.747M741.369 72.0993H796.341M741.369 72.0993L744.669 67.0107L745.747 65.3484M741.369 72.0993L739.681 74.7019L737.967 77.345L736.809 79.1303M538.648 58.8611L545.745 53.3889L546.739 52.6217M598.555 52.6217L605.368 46.6174M598.555 52.6217H650.369M598.555 52.6217H546.739M650.369 52.6217L652.585 50.3437L654.045 48.8428L656.209 46.6174M650.369 52.6217H702.184M697.127 58.8611H749.953M697.127 58.8611L702.184 52.6217M745.747 65.3484H799.625M745.747 65.3484L749.953 58.8611M605.368 46.6174H656.209M605.368 46.6174L611.931 40.8343M656.209 46.6174L661.835 40.8343M656.209 46.6174H707.051M611.931 40.8343H661.835M611.931 40.8343L618.255 35.2607M661.835 40.8343L663.891 38.7201L665.247 37.3268L667.256 35.2607M661.835 40.8343H711.739M707.051 46.6174L708.239 45.1506L711.739 40.8343M707.051 46.6174L706.453 47.3554L705.852 48.0968L704.032 50.3437L703.417 51.0991L702.184 52.6217M707.051 46.6174H757.892M618.255 35.2607H667.256M618.255 35.2607H569.255M618.255 35.2607L622.851 31.2104L624.356 29.8852M667.256 35.2607L669.893 32.5489L672.484 29.8852M667.256 35.2607H716.257M711.739 40.8343L712.313 40.1265L712.884 39.4211L715.143 36.6344L716.257 35.2607M711.739 40.8343H761.644M702.184 52.6217H754M757.892 46.6174H808.735M757.892 46.6174L761.181 41.545L761.644 40.8343M757.892 46.6174L757.415 47.3554L756.933 48.0968L756.451 48.8428L754 52.6217M569.255 35.2607L576.225 29.8852M624.356 29.8852L625.103 29.2262L630.243 24.6972M624.356 29.8852H672.484M624.356 29.8852H576.225M672.484 29.8852L675.029 27.2679L677.529 24.6972M672.484 29.8852H720.613M716.257 35.2607H765.257M716.257 35.2607L720.613 29.8852M761.644 40.8343H811.548M761.644 40.8343L765.257 35.2607M630.243 24.6972H677.529M630.243 24.6972L634.524 20.9243L635.927 19.6876M677.529 24.6972L681.201 20.9243L681.803 20.3042L682.403 19.6876M677.529 24.6972H724.819M635.927 19.6876H682.403M682.403 19.6876H728.879M724.819 24.6972L728.879 19.6876M724.819 24.6972L720.613 29.8852M724.819 24.6972H772.107M728.879 19.6876H775.355M728.879 19.6876L731.833 16.0421L732.803 14.8477M720.613 29.8852H768.743M772.107 24.6972H819.396M772.107 24.6972L775.355 19.6876M772.107 24.6972L768.743 29.8852M775.355 19.6876H821.831M775.355 19.6876L776.939 17.247L778.108 15.4436L778.493 14.8477M732.803 14.8477H778.493M578.841 519.326H706.315M578.841 519.326L596.044 483.956M578.841 519.326L559.939 558.195M706.315 519.326L717.783 483.956M706.315 519.326L693.713 558.195M706.315 519.326H833.788M596.044 483.956H717.783M596.044 483.956L611.765 451.631M559.939 558.195H693.713M559.939 558.195L539.071 601.105M559.939 558.195H426.165M717.783 483.956L728.264 451.631M717.783 483.956H839.521M693.713 558.195L679.8 601.105M693.713 558.195H827.487M833.788 519.326L839.521 483.956M833.788 519.326L827.487 558.195M833.788 519.326H961.26M611.765 451.631H728.264M611.765 451.631H495.267M611.765 451.631L626.188 421.971M426.165 558.195L398.34 601.105M539.071 601.105H679.8M539.071 601.105H398.34M728.264 451.631L737.88 421.971M728.264 451.631H844.761M839.521 483.956L844.761 451.631M839.521 483.956H961.26M679.8 601.105H820.529M827.487 558.195H961.26M827.487 558.195L820.529 601.105M961.26 519.326H1088.73M961.26 519.326V483.956M961.26 519.326V558.195M495.267 451.631L514.499 421.971M626.188 421.971L639.469 394.664M626.188 421.971H737.88M626.188 421.971H514.499M737.88 421.971L746.732 394.664M737.88 421.971H849.569M844.761 451.631H961.26M844.761 451.631L849.569 421.971M961.26 483.956H1083M961.26 483.956V451.631M639.469 394.664H746.732M639.469 394.664L651.737 369.439M746.732 394.664L754.911 369.439M746.732 394.664H853.997M651.737 369.439H754.911M651.737 369.439L663.104 346.066M754.911 369.439L762.489 346.066M754.911 369.439H858.085M853.997 394.664L858.085 369.439M853.997 394.664L849.569 421.971M853.997 394.664H961.26M663.104 346.066H762.489M663.104 346.066H563.719M663.104 346.066L673.665 324.349M762.489 346.066L769.531 324.349M762.489 346.066H861.875M858.085 369.439L861.875 346.066M858.085 369.439H961.26M849.569 421.971H961.26M961.26 394.664H1068.52M961.26 394.664V369.439M961.26 394.664V421.971M563.719 346.066L577.8 324.349M673.665 324.349L683.504 304.121M673.665 324.349H769.531M673.665 324.349H577.8M769.531 324.349L776.089 304.121M769.531 324.349H865.395M861.875 346.066H961.26M861.875 346.066L865.395 324.349M961.26 369.439H1064.43M961.26 369.439V346.066M683.504 304.121H776.089M683.504 304.121L692.692 285.226M776.089 304.121L782.215 285.226M776.089 304.121H868.675M692.692 285.226H782.215M692.692 285.226L701.291 267.545M782.215 285.226L787.948 267.545M782.215 285.226H871.737M868.675 304.121L871.737 285.226M868.675 304.121L865.395 324.349M868.675 304.121H961.26M701.291 267.545H787.948M701.291 267.545H614.635M701.291 267.545L709.357 250.96M787.948 267.545L793.324 250.96M787.948 267.545H874.604M871.737 285.226L874.604 267.545M871.737 285.226H961.26M865.395 324.349H961.26M961.26 304.121H1053.85M961.26 304.121V285.226M961.26 304.121V324.349M614.635 267.545L625.389 250.96M709.357 250.96L716.937 235.373M709.357 250.96H793.324M709.357 250.96H625.389M793.324 250.96L798.377 235.373M793.324 250.96H877.292M874.604 267.545H961.26M874.604 267.545L877.292 250.96M961.26 285.226H1050.78M961.26 285.226V267.545M716.937 235.373H798.377M716.937 235.373L724.075 220.697M798.377 235.373L803.136 220.697M798.377 235.373H879.819M724.075 220.697H803.136M724.075 220.697L730.807 206.853M803.136 220.697L807.625 206.853M803.136 220.697H882.199M879.819 235.373L882.199 220.697M879.819 235.373L877.292 250.96M879.819 235.373H961.26M730.807 206.853H807.625M730.807 206.853H653.989M730.807 206.853L737.168 193.775M807.625 206.853L811.865 193.775M807.625 206.853H884.443M882.199 220.697L884.443 206.853M882.199 220.697H961.26M877.292 250.96H961.26M961.26 235.373H1042.7M961.26 235.373V220.697M961.26 235.373V250.96M653.989 206.853L662.471 193.775M737.168 193.775L743.187 181.398M737.168 193.775H811.865M737.168 193.775H662.471M811.865 193.775L815.879 181.398M811.865 193.775H886.563M884.443 206.853H961.26M884.443 206.853L886.563 193.775M961.26 220.697H1040.32M961.26 220.697V206.853M743.187 181.398H815.879M743.187 181.398L748.891 169.669M815.879 181.398L819.68 169.669M815.879 181.398H888.569M748.891 169.669H819.68M748.891 169.669L754.304 158.538M819.68 169.669L823.289 158.538M819.68 169.669H890.471M888.569 181.398L890.471 169.669M888.569 181.398L886.563 193.775M888.569 181.398H961.26M754.304 158.538H823.289M754.304 158.538H685.319M754.304 158.538L759.449 147.961M823.289 158.538L826.719 147.961M823.289 158.538H892.275M890.471 169.669L892.275 158.538M890.471 169.669H961.26M886.563 193.775H961.26M961.26 181.398H1033.95M961.26 181.398V169.669M961.26 181.398V193.775M685.319 158.538L692.177 147.961M759.449 147.961L764.343 137.896M759.449 147.961H826.719M759.449 147.961H692.177M826.719 147.961L829.981 137.896M826.719 147.961H893.989M892.275 158.538H961.26M892.275 158.538L893.989 147.961M961.26 169.669H1032.05M961.26 169.669V158.538M764.343 137.896H829.981M764.343 137.896L769.005 128.308M829.981 137.896L833.091 128.308M829.981 137.896H895.621M769.005 128.308H833.091M769.005 128.308L770.699 124.829L773.453 119.164M833.091 128.308L836.056 119.164M833.091 128.308H897.176M895.621 137.896L897.176 128.308M895.621 137.896L893.989 147.961M895.621 137.896H961.26M773.453 119.164H836.056M773.453 119.164H710.851M773.453 119.164L777.699 110.433M836.056 119.164L838.885 110.433M836.056 119.164H898.657M897.176 128.308L898.657 119.164M897.176 128.308H961.26M893.989 147.961H961.26M961.26 137.896H1026.9M961.26 137.896V128.308M961.26 137.896V147.961M710.851 119.164L716.512 110.433M777.699 110.433L778.732 108.312L781.757 102.088M777.699 110.433H838.885M777.699 110.433H716.512M838.885 110.433L841.592 102.088M838.885 110.433H900.073M898.657 119.164H961.26M898.657 119.164L900.073 110.433M961.26 128.308H1025.34M961.26 128.308V119.164M781.757 102.088H841.592M781.757 102.088L785.641 94.1049M841.592 102.088L842.576 99.0533L844.18 94.1049M841.592 102.088H901.427M785.641 94.1049L786.113 93.1308L789.359 86.4591M785.641 94.1049H844.18M844.18 94.1049L845.123 91.199L845.432 90.2406L845.743 89.2881L846.659 86.4591M844.18 94.1049H902.72M901.427 102.088L902.72 94.1049M901.427 102.088L900.073 110.433M901.427 102.088H961.26M789.359 86.4591H846.659M789.359 86.4591H732.059M789.359 86.4591L792.923 79.1303M846.659 86.4591L847.563 83.6748L847.859 82.7558L849.036 79.1303M846.659 86.4591H903.96M902.72 94.1049L902.877 93.1308L903.96 86.4591M902.72 94.1049H961.26M900.073 110.433H961.26M961.26 102.088H1021.09M961.26 102.088V94.1049M961.26 102.088V110.433M732.059 86.4591L736.809 79.1303M792.923 79.1303L796.341 72.0993M792.923 79.1303H849.036M792.923 79.1303H736.809M849.036 79.1303L851.315 72.0993M849.036 79.1303H905.147M903.96 86.4591H961.26M903.96 86.4591L904.261 84.5979L904.856 80.9335L905.147 79.1303M961.26 94.1049H1019.8M961.26 94.1049V86.4591M796.341 72.0993H851.315M796.341 72.0993L798 68.6899L798.409 67.8485L798.816 67.0107L799.223 66.1777L799.625 65.3484M851.315 72.0993L852.964 67.0107L853.235 66.1777L853.503 65.3484M851.315 72.0993H906.288M799.625 65.3484H853.503M799.625 65.3484L801.612 61.2638L802.003 60.4586L802.78 58.8611M853.503 65.3484L854.828 61.2638L855.089 60.4586L855.348 59.6575L855.607 58.8611M853.503 65.3484H907.383M906.288 72.0993L907.383 65.3484M906.288 72.0993L905.865 74.7019L905.437 77.345L905.147 79.1303M906.288 72.0993H961.26M802.78 58.8611H855.607M802.78 58.8611H749.953M802.78 58.8611L805.815 52.6217M855.607 58.8611L857.629 52.6217M855.607 58.8611H908.433M907.383 65.3484L908.433 58.8611M907.383 65.3484H961.26M905.147 79.1303H961.26M961.26 72.0993H1016.23M961.26 72.0993V65.3484M961.26 72.0993V79.1303M749.953 58.8611L754 52.6217M805.815 52.6217L806.923 50.3437L808.015 48.0968L808.735 46.6174M805.815 52.6217H857.629M805.815 52.6217H754M857.629 52.6217L857.877 51.8586L859.337 47.3554L859.577 46.6174M857.629 52.6217H909.445M908.433 58.8611H961.26M908.433 58.8611L909.445 52.6217M961.26 65.3484H1015.14M961.26 65.3484V58.8611M808.735 46.6174H859.577M808.735 46.6174L811.548 40.8343M859.577 46.6174L861.452 40.8343M859.577 46.6174H910.419M811.548 40.8343H861.452M811.548 40.8343L814.259 35.2607M861.452 40.8343L862.137 38.7201L862.364 38.0217L862.589 37.3268L863.259 35.2607M861.452 40.8343H911.356M910.419 46.6174L911.125 42.2598L911.24 41.545L911.356 40.8343M910.419 46.6174L909.445 52.6217M910.419 46.6174H961.26M814.259 35.2607H863.259M814.259 35.2607H765.257M814.259 35.2607L814.92 33.8982L815.249 33.2223L815.576 32.5489L815.904 31.8778L816.227 31.2104L816.551 30.5466L816.872 29.8852M909.445 52.6217H961.26M863.259 35.2607L863.48 34.5778L863.7 33.8982L864.139 32.5489L864.355 31.8778L864.572 31.2104L864.787 30.5466L865.001 29.8852M863.259 35.2607H912.26M911.356 40.8343L912.26 35.2607M911.356 40.8343H961.26M961.26 46.6174H1012.1M961.26 46.6174V40.8343M961.26 46.6174V52.6217M765.257 35.2607L766.14 33.8982L768.743 29.8852M816.872 29.8852L817.828 27.9182L818.145 27.2679L818.459 26.6212L819.396 24.6972M816.872 29.8852H865.001M816.872 29.8852H768.743M865.001 29.8852L865.215 29.2262L865.64 27.9182L865.849 27.2679L866.683 24.6972M865.001 29.8852H913.131M912.26 35.2607H961.26M912.26 35.2607L912.807 31.8778L912.916 31.2104L913.023 30.5466L913.131 29.8852M961.26 40.8343H1011.16M961.26 40.8343V35.2607M819.396 24.6972H866.683M819.396 24.6972L821.231 20.9243L821.831 19.6876M866.683 24.6972L866.889 24.0617L867.299 22.7983L867.705 21.5461L868.307 19.6876M866.683 24.6972H913.972M821.831 19.6876H868.307M868.307 19.6876H914.784M913.972 24.6972L914.784 19.6876M913.972 24.6972L913.131 29.8852M913.972 24.6972H961.26M914.784 19.6876L914.883 19.0736L914.983 18.4621L915.081 17.8533L915.569 14.8477M914.784 19.6876H961.26M913.131 29.8852H961.26M961.26 24.6972H1008.55M961.26 24.6972V19.6876M961.26 24.6972V29.8852M915.569 14.8477H961.26M961.26 19.6876H1007.74M961.26 19.6876V14.8477M1088.73 519.326H1216.21M1088.73 519.326L1083 483.956M1088.73 519.326L1095.03 558.195M1216.21 519.326L1204.74 483.956M1216.21 519.326L1228.81 558.195M1216.21 519.326H1343.67M1083 483.956H1204.74M1083 483.956L1077.76 451.631M1095.03 558.195H1228.81M1095.03 558.195L1101.99 601.105M1095.03 558.195H961.26M1204.74 483.956L1194.26 451.631M1204.74 483.956H1326.48M1228.81 558.195L1242.72 601.105M1228.81 558.195H1362.58M1343.67 519.326L1326.48 483.956M1343.67 519.326L1362.58 558.195M1343.67 519.326H1471.15M1077.76 451.631H1194.26M1077.76 451.631H961.26M1077.76 451.631L1072.95 421.971M961.26 558.195V601.105M1101.99 601.105H1242.72M1101.99 601.105H961.26M1194.26 451.631L1184.64 421.971M1194.26 451.631H1310.75M1326.48 483.956L1310.75 451.631M1326.48 483.956H1448.22M1242.72 601.105H1383.45M1362.58 558.195H1496.35M1362.58 558.195L1383.45 601.105M1471.15 519.326H1598.62M1471.15 519.326L1448.22 483.956M1471.15 519.326L1496.35 558.195M961.26 451.631V421.971M1072.95 421.971L1068.52 394.664M1072.95 421.971H1184.64M1072.95 421.971H961.26M1184.64 421.971L1175.79 394.664M1184.64 421.971H1296.33M1310.75 451.631H1427.25M1310.75 451.631L1296.33 421.971M1448.22 483.956H1569.95M1448.22 483.956L1427.25 451.631M1068.52 394.664H1175.79M1068.52 394.664L1064.43 369.439M1175.79 394.664L1167.61 369.439M1175.79 394.664H1283.05M1064.43 369.439H1167.61M1064.43 369.439L1060.65 346.066M1167.61 369.439L1160.03 346.066M1167.61 369.439H1270.78M1283.05 394.664L1270.78 369.439M1283.05 394.664L1296.33 421.971M1283.05 394.664H1390.31M1060.65 346.066H1160.03M1060.65 346.066H961.26M1060.65 346.066L1057.13 324.349M1160.03 346.066L1152.99 324.349M1160.03 346.066H1259.42M1270.78 369.439L1259.42 346.066M1270.78 369.439H1373.95M1296.33 421.971H1408.02M1390.31 394.664H1497.58M1390.31 394.664L1373.95 369.439M1390.31 394.664L1408.02 421.971M961.26 346.066V324.349M1057.13 324.349L1053.85 304.121M1057.13 324.349H1152.99M1057.13 324.349H961.26M1152.99 324.349L1146.43 304.121M1152.99 324.349H1248.85M1259.42 346.066H1358.81M1259.42 346.066L1248.85 324.349M1373.95 369.439H1477.13M1373.95 369.439L1358.81 346.066M1053.85 304.121H1146.43M1053.85 304.121L1050.78 285.226M1146.43 304.121L1140.31 285.226M1146.43 304.121H1239.02M1050.78 285.226H1140.31M1050.78 285.226L1047.92 267.545M1140.31 285.226L1134.57 267.545M1140.31 285.226H1229.83M1239.02 304.121L1229.83 285.226M1239.02 304.121L1248.85 324.349M1239.02 304.121H1331.6M1047.92 267.545H1134.57M1047.92 267.545H961.26M1047.92 267.545L1045.23 250.96M1134.57 267.545L1129.2 250.96M1134.57 267.545H1221.23M1229.83 285.226L1221.23 267.545M1229.83 285.226H1319.35M1248.85 324.349H1344.73M1331.6 304.121H1424.19M1331.6 304.121L1319.35 285.226M1331.6 304.121L1344.73 324.349M961.26 267.545V250.96M1045.23 250.96L1042.7 235.373M1045.23 250.96H1129.2M1045.23 250.96H961.26M1129.2 250.96L1124.14 235.373M1129.2 250.96H1213.16M1221.23 267.545H1307.89M1221.23 267.545L1213.16 250.96M1319.35 285.226H1408.87M1319.35 285.226L1307.89 267.545M1042.7 235.373H1124.14M1042.7 235.373L1040.32 220.697M1124.14 235.373L1119.38 220.697M1124.14 235.373H1205.58M1040.32 220.697H1119.38M1040.32 220.697L1038.08 206.853M1119.38 220.697L1114.9 206.853M1119.38 220.697H1198.45M1205.58 235.373L1198.45 220.697M1205.58 235.373L1213.16 250.96M1205.58 235.373H1287.02M1038.08 206.853H1114.9M1038.08 206.853H961.26M1038.08 206.853L1035.96 193.775M1114.9 206.853L1110.65 193.775M1114.9 206.853H1191.71M1198.45 220.697L1191.71 206.853M1198.45 220.697H1277.51M1213.16 250.96H1297.13M1287.02 235.373H1368.46M1287.02 235.373L1277.51 220.697M1287.02 235.373L1297.13 250.96M961.26 206.853V193.775M1035.96 193.775L1033.95 181.398M1035.96 193.775H1110.65M1035.96 193.775H961.26M1110.65 193.775L1106.64 181.398M1110.65 193.775H1185.35M1191.71 206.853H1268.53M1191.71 206.853L1185.35 193.775M1277.51 220.697H1356.57M1277.51 220.697L1268.53 206.853M1033.95 181.398H1106.64M1033.95 181.398L1032.05 169.669M1106.64 181.398L1102.84 169.669M1106.64 181.398H1179.33M1032.05 169.669H1102.84M1032.05 169.669L1030.25 158.538M1102.84 169.669L1099.23 158.538M1102.84 169.669H1173.63M1179.33 181.398L1173.63 169.669M1179.33 181.398L1185.35 193.775M1179.33 181.398H1252.02M1030.25 158.538H1099.23M1030.25 158.538H961.26M1030.25 158.538L1028.74 149.254L1028.53 147.961M1099.23 158.538L1095.8 147.961M1099.23 158.538H1168.22M1173.63 169.669L1168.22 158.538M1173.63 169.669H1244.42M1185.35 193.775H1260.05M1252.02 181.398H1324.71M1252.02 181.398L1250.08 178.408L1244.42 169.669M1252.02 181.398L1260.05 193.775M961.26 158.538V147.961M1028.53 147.961L1026.9 137.896M1028.53 147.961H1095.8M1028.53 147.961H961.26M1095.8 147.961L1092.54 137.896M1095.8 147.961H1163.07M1168.22 158.538H1237.2M1168.22 158.538L1163.07 147.961M1244.42 169.669H1315.21M1244.42 169.669L1237.2 158.538M1026.9 137.896H1092.54M1026.9 137.896L1025.34 128.308M1092.54 137.896L1089.43 128.308M1092.54 137.896H1158.18M1025.34 128.308H1089.43M1025.34 128.308L1023.86 119.164M1089.43 128.308L1086.46 119.164M1089.43 128.308H1153.51M1158.18 137.896L1153.51 128.308M1158.18 137.896L1163.07 147.961M1158.18 137.896H1223.82M1023.86 119.164H1086.46M1023.86 119.164H961.26M1023.86 119.164L1022.45 110.433M1086.46 119.164L1083.63 110.433M1086.46 119.164H1149.07M1153.51 128.308L1152.38 125.982L1149.07 119.164M1153.51 128.308H1217.6M1163.07 147.961H1230.34M1223.82 137.896H1289.45M1223.82 137.896L1217.6 128.308M1223.82 137.896L1230.34 147.961M961.26 119.164V110.433M1022.45 110.433L1021.09 102.088M1022.45 110.433H1083.63M1022.45 110.433H961.26M1083.63 110.433L1080.93 102.088M1083.63 110.433H1144.82M1149.07 119.164H1211.67M1149.07 119.164L1144.82 110.433M1217.6 128.308H1281.68M1217.6 128.308L1211.67 119.164M1021.09 102.088H1080.93M1021.09 102.088L1019.8 94.1049M1080.93 102.088L1078.66 95.084L1078.34 94.1049M1080.93 102.088H1140.76M1019.8 94.1049L1019.64 93.1308L1018.56 86.4591M1019.8 94.1049H1078.34M1078.34 94.1049L1077.4 91.199L1077.09 90.2406L1076.78 89.2881L1075.86 86.4591M1078.34 94.1049H1136.88M1140.76 102.088L1136.88 94.1049M1140.76 102.088L1143.79 108.312L1144.82 110.433M1140.76 102.088H1200.6M1018.56 86.4591H1075.86M1018.56 86.4591H961.26M1018.56 86.4591L1018.26 84.5979L1017.67 80.9335L1017.37 79.1303M1075.86 86.4591L1074.96 83.6748L1074.66 82.7558L1073.48 79.1303M1075.86 86.4591H1133.16M1136.88 94.1049L1133.16 86.4591M1136.88 94.1049H1195.42M1144.82 110.433H1206.01M1200.6 102.088H1260.43M1200.6 102.088L1195.42 94.1049M1200.6 102.088L1203.27 106.214L1206.01 110.433M961.26 86.4591V79.1303M1017.37 79.1303L1017.23 78.2355L1016.94 76.4596L1016.8 75.5786L1016.65 74.7019L1016.23 72.0993M1017.37 79.1303H1073.48M1017.37 79.1303H961.26M1073.48 79.1303L1071.21 72.0993M1073.48 79.1303H1129.6M1133.16 86.4591H1190.46M1133.16 86.4591L1129.6 79.1303M1195.42 94.1049H1253.96M1195.42 94.1049L1190.46 86.4591M1016.23 72.0993H1071.21M1016.23 72.0993L1015.14 65.3484M1071.21 72.0993L1069.56 67.0107L1069.02 65.3484M1071.21 72.0993H1126.18M1015.14 65.3484H1069.02M1015.14 65.3484L1014.09 58.8611M1069.02 65.3484L1067.69 61.2638L1067.43 60.4586L1067.17 59.6575L1066.91 58.8611M1069.02 65.3484H1122.89M1126.18 72.0993L1124.11 67.8485L1123.7 67.0107L1123.3 66.1777L1122.89 65.3484M1126.18 72.0993L1129.16 78.2355L1129.6 79.1303M1126.18 72.0993H1181.15M1014.09 58.8611H1066.91M1014.09 58.8611H961.26M1014.09 58.8611L1013.07 52.6217M1066.91 58.8611L1064.89 52.6217M1066.91 58.8611H1119.74M1122.89 65.3484L1121.3 62.0723L1120.91 61.2638L1120.52 60.4586L1119.74 58.8611M1122.89 65.3484H1176.77M1129.6 79.1303H1185.71M1181.15 72.0993H1236.12M1181.15 72.0993L1177.85 67.0107L1176.77 65.3484M1181.15 72.0993L1182.84 74.7019L1185.71 79.1303M961.26 58.8611V52.6217M1013.07 52.6217L1012.1 46.6174M1013.07 52.6217H1064.89M1013.07 52.6217H961.26M1064.89 52.6217L1064.64 51.8586L1063.18 47.3554L1062.94 46.6174M1064.89 52.6217H1116.71M1119.74 58.8611H1172.57M1119.74 58.8611L1116.71 52.6217M1176.77 65.3484H1230.65M1176.77 65.3484L1172.57 58.8611M1012.1 46.6174H1062.94M1012.1 46.6174L1011.16 40.8343M1062.94 46.6174L1061.07 40.8343M1062.94 46.6174H1113.79M1011.16 40.8343H1061.07M1011.16 40.8343L1010.26 35.2607M1061.07 40.8343L1060.38 38.7201L1060.16 38.0217L1059.93 37.3268L1059.26 35.2607M1061.07 40.8343H1110.97M1113.79 46.6174L1110.97 40.8343M1113.79 46.6174L1114.51 48.0968L1115.6 50.3437L1116.71 52.6217M1113.79 46.6174H1164.63M1010.26 35.2607H1059.26M1010.26 35.2607H961.26M1010.26 35.2607L1009.39 29.8852M1116.71 52.6217H1168.52M1059.26 35.2607L1059.04 34.5778L1058.38 32.5489L1058.17 31.8778L1057.95 31.2104L1057.73 30.5466L1057.52 29.8852M1059.26 35.2607H1108.26M1110.97 40.8343L1108.26 35.2607M1110.97 40.8343H1160.88M1164.63 46.6174H1215.47M1164.63 46.6174L1161.34 41.545L1160.88 40.8343M1164.63 46.6174L1165.11 47.3554L1165.59 48.0968L1166.07 48.8428L1168.52 52.6217M961.26 35.2607V29.8852M1009.39 29.8852L1008.55 24.6972M1009.39 29.8852H1057.52M1009.39 29.8852H961.26M1057.52 29.8852L1057.31 29.2262L1056.88 27.9182L1056.67 27.2679L1055.84 24.6972M1057.52 29.8852H1105.65M1108.26 35.2607H1157.26M1108.26 35.2607L1106.94 32.5489L1106.62 31.8778L1106.29 31.2104L1105.97 30.5466L1105.65 29.8852M1160.88 40.8343H1210.78M1160.88 40.8343L1157.26 35.2607M1008.55 24.6972H1055.84M1008.55 24.6972L1007.74 19.6876M1055.84 24.6972L1055.63 24.0617L1055.22 22.7983L1055.02 22.1705L1054.61 20.9243L1054.41 20.3042L1054.21 19.6876M1055.84 24.6972H1103.12M1007.74 19.6876H1054.21M1054.21 19.6876H1100.69M1103.12 24.6972L1101.29 20.9243L1100.69 19.6876M1103.12 24.6972L1104.69 27.9182L1105.65 29.8852M1103.12 24.6972H1150.41M1100.69 19.6876H1147.17M1100.69 19.6876L1098.92 16.0421L1098.33 14.8477M1105.65 29.8852H1153.78M1150.41 24.6972H1197.7M1150.41 24.6972L1147.97 20.9243L1147.17 19.6876M1150.41 24.6972L1153.78 29.8852M1147.17 19.6876H1193.64M1147.17 19.6876L1145.58 17.247L1144.41 15.4436L1144.03 14.8477M1098.33 14.8477H1144.03M1598.62 519.326H1726.1M1598.62 519.326L1569.95 483.956M1598.62 519.326L1630.13 558.195M1726.1 519.326L1691.69 483.956M1726.1 519.326L1763.9 558.195M1726.1 519.326H1853.57M1569.95 483.956H1691.69M1569.95 483.956L1543.75 451.631M1630.13 558.195H1763.9M1630.13 558.195L1664.91 601.105M1630.13 558.195H1496.35M1691.69 483.956L1660.25 451.631M1691.69 483.956H1813.43M1763.9 558.195L1805.63 601.105M1763.9 558.195H1897.67M1853.57 519.326L1813.43 483.956M1853.57 519.326L1897.67 558.195M1853.57 519.326H1920.74M1543.75 451.631H1660.25M1543.75 451.631H1427.25M1543.75 451.631L1519.71 421.971M1496.35 558.195L1524.18 601.105M1664.91 601.105H1805.63M1664.91 601.105H1524.18M1660.25 451.631L1631.41 421.971M1660.25 451.631H1776.75M1813.43 483.956L1776.75 451.631M1813.43 483.956H1920.74M1805.63 601.105H1920.74M1897.67 558.195L1920.74 578.523M1897.67 558.195H1920.74M1920.74 519.326V483.956M1920.74 519.326V558.195M1427.25 451.631L1408.02 421.971M1519.71 421.971L1497.58 394.664M1519.71 421.971H1631.41M1519.71 421.971H1408.02M1631.41 421.971L1604.85 394.664M1631.41 421.971H1743.09M1776.75 451.631L1743.09 421.971M1776.75 451.631H1893.25M1920.74 483.956V472.833M1497.58 394.664H1604.85M1497.58 394.664L1477.13 369.439M1604.85 394.664L1580.31 369.439M1604.85 394.664H1712.1M1477.13 369.439H1580.31M1477.13 369.439L1458.19 346.066M1580.31 369.439L1557.57 346.066M1580.31 369.439H1683.49M1712.1 394.664L1683.49 369.439M1712.1 394.664L1743.09 421.971M1712.1 394.664H1819.37M1458.19 346.066H1557.57M1458.19 346.066H1358.81M1458.19 346.066L1440.58 324.349M1557.57 346.066L1536.45 324.349M1557.57 346.066H1656.95M1683.49 369.439L1656.95 346.066M1683.49 369.439H1786.66M1743.09 421.971H1854.78M1819.37 394.664L1786.66 369.439M1819.37 394.664L1854.78 421.971M1819.37 394.664H1920.74M1358.81 346.066L1344.73 324.349M1440.58 324.349L1424.19 304.121M1440.58 324.349H1536.45M1440.58 324.349H1344.73M1536.45 324.349L1516.77 304.121M1536.45 324.349H1632.31M1656.95 346.066L1632.31 324.349M1656.95 346.066H1756.34M1786.66 369.439H1889.83M1786.66 369.439L1756.34 346.066M1424.19 304.121H1516.77M1424.19 304.121L1408.87 285.226M1516.77 304.121L1498.39 285.226M1516.77 304.121H1609.35M1408.87 285.226H1498.39M1408.87 285.226L1394.54 267.545M1498.39 285.226L1481.19 267.545M1498.39 285.226H1587.91M1609.35 304.121L1587.91 285.226M1609.35 304.121L1632.31 324.349M1609.35 304.121H1701.94M1394.54 267.545H1481.19M1394.54 267.545H1307.89M1394.54 267.545L1381.1 250.96M1481.19 267.545L1465.07 250.96M1481.19 267.545H1567.86M1587.91 285.226L1567.86 267.545M1587.91 285.226H1677.45M1632.31 324.349H1728.18M1701.94 304.121H1794.53M1701.94 304.121L1677.45 285.226M1701.94 304.121L1728.18 324.349M1307.89 267.545L1297.13 250.96M1381.1 250.96L1368.46 235.373M1381.1 250.96H1465.07M1381.1 250.96H1297.13M1465.07 250.96L1449.9 235.373M1465.07 250.96H1549.03M1567.86 267.545H1654.51M1567.86 267.545L1549.03 250.96M1677.45 285.226H1766.97M1677.45 285.226L1654.51 267.545M1368.46 235.373H1449.9M1368.46 235.373L1356.57 220.697M1449.9 235.373L1435.63 220.697M1449.9 235.373H1531.35M1356.57 220.697H1435.63M1356.57 220.697L1345.35 206.853M1435.63 220.697L1422.17 206.853M1435.63 220.697H1514.69M1531.35 235.373L1514.69 220.697M1531.35 235.373L1549.03 250.96M1531.35 235.373H1612.79M1345.35 206.853H1422.17M1345.35 206.853H1268.53M1345.35 206.853L1334.75 193.775M1422.17 206.853L1409.45 193.775M1422.17 206.853H1498.98M1514.69 220.697L1498.98 206.853M1514.69 220.697H1593.75M1549.03 250.96H1633.01M1612.79 235.373H1694.23M1612.79 235.373L1593.75 220.697M1612.79 235.373L1633.01 250.96M1268.53 206.853L1260.05 193.775M1334.75 193.775L1324.71 181.398M1334.75 193.775H1409.45M1334.75 193.775H1260.05M1409.45 193.775L1397.41 181.398M1409.45 193.775H1484.14M1498.98 206.853H1575.81M1498.98 206.853L1484.14 193.775M1593.75 220.697H1672.82M1593.75 220.697L1575.81 206.853M1324.71 181.398H1397.41M1324.71 181.398L1315.21 169.669M1397.41 181.398L1385.99 169.669M1397.41 181.398H1470.1M1315.21 169.669H1385.99M1315.21 169.669L1306.19 158.538M1385.99 169.669L1375.17 158.538M1385.99 169.669H1456.79M1470.1 181.398L1456.79 169.669M1470.1 181.398L1484.14 193.775M1470.1 181.398H1542.79M1306.19 158.538H1375.17M1306.19 158.538H1237.2M1306.19 158.538L1297.61 147.961M1375.17 158.538L1364.89 147.961M1375.17 158.538H1444.15M1456.79 169.669L1444.15 158.538M1456.79 169.669H1527.58M1484.14 193.775H1558.83M1542.79 181.398H1615.47M1542.79 181.398L1527.58 169.669M1542.79 181.398L1558.83 193.775M1237.2 158.538L1230.34 147.961M1297.61 147.961L1289.45 137.896M1297.61 147.961H1364.89M1297.61 147.961H1230.34M1364.89 147.961L1355.1 137.896M1364.89 147.961H1432.15M1444.15 158.538H1513.14M1444.15 158.538L1432.15 147.961M1527.58 169.669H1598.37M1527.58 169.669L1513.14 158.538M1289.45 137.896H1355.1M1289.45 137.896L1281.68 128.308M1355.1 137.896L1345.77 128.308M1355.1 137.896H1420.73M1281.68 128.308H1345.77M1281.68 128.308L1274.27 119.164M1345.77 128.308L1336.87 119.164M1345.77 128.308H1409.85M1420.73 137.896L1409.85 128.308M1420.73 137.896L1432.15 147.961M1420.73 137.896H1486.37M1274.27 119.164H1336.87M1274.27 119.164H1211.67M1274.27 119.164L1267.19 110.433M1336.87 119.164L1328.38 110.433M1336.87 119.164H1399.47M1409.85 128.308L1399.47 119.164M1409.85 128.308H1473.94M1432.15 147.961H1499.42M1486.37 137.896H1552.01M1486.37 137.896L1473.94 128.308M1486.37 137.896L1499.42 147.961M1211.67 119.164L1206.01 110.433M1267.19 110.433L1262.09 104.14L1261.26 103.111L1260.43 102.088M1267.19 110.433H1328.38M1267.19 110.433H1206.01M1328.38 110.433L1320.27 102.088M1328.38 110.433H1389.57M1399.47 119.164H1462.07M1399.47 119.164L1389.57 110.433M1473.94 128.308H1538.02M1473.94 128.308L1462.07 119.164M1260.43 102.088H1320.27M1260.43 102.088L1253.96 94.1049M1320.27 102.088L1312.5 94.1049M1320.27 102.088H1380.1M1253.96 94.1049H1312.5M1253.96 94.1049L1247.76 86.4591M1312.5 94.1049L1305.06 86.4591M1312.5 94.1049H1371.03M1380.1 102.088L1371.03 94.1049M1380.1 102.088L1389.57 110.433M1380.1 102.088H1439.94M1247.76 86.4591H1305.06M1247.76 86.4591H1190.46M1247.76 86.4591L1246.25 84.5979L1241.82 79.1303M1305.06 86.4591L1302.35 83.6748L1301.46 82.7558L1297.93 79.1303M1305.06 86.4591H1362.37M1371.03 94.1049L1362.37 86.4591M1371.03 94.1049H1429.58M1389.57 110.433H1450.75M1439.94 102.088H1499.77M1439.94 102.088L1429.58 94.1049M1439.94 102.088L1450.75 110.433M1190.46 86.4591L1185.71 79.1303M1241.82 79.1303L1236.12 72.0993M1241.82 79.1303H1297.93M1241.82 79.1303H1185.71M1297.93 79.1303L1291.1 72.0993M1297.93 79.1303H1354.05M1362.37 86.4591H1419.66M1362.37 86.4591L1354.05 79.1303M1429.58 94.1049H1488.11M1429.58 94.1049L1419.66 86.4591M1236.12 72.0993H1291.1M1236.12 72.0993L1230.65 65.3484M1291.1 72.0993L1286.96 67.8485L1284.53 65.3484M1291.1 72.0993H1346.07M1230.65 65.3484H1284.53M1230.65 65.3484L1226.04 59.6575L1225.39 58.8611M1284.53 65.3484L1278.22 58.8611M1284.53 65.3484H1338.41M1346.07 72.0993L1338.41 65.3484M1346.07 72.0993L1354.05 79.1303M1346.07 72.0993H1401.05M1225.39 58.8611H1278.22M1225.39 58.8611H1172.57M1225.39 58.8611L1220.34 52.6217M1278.22 58.8611L1272.15 52.6217M1278.22 58.8611H1331.05M1338.41 65.3484L1333.77 61.2638L1332.86 60.4586L1331.05 58.8611M1338.41 65.3484H1392.29M1354.05 79.1303H1410.15M1401.05 72.0993H1456.02M1401.05 72.0993L1392.29 65.3484M1401.05 72.0993L1410.15 79.1303M1172.57 58.8611L1172.05 58.068L1171.54 57.2783L1168.52 52.6217M1220.34 52.6217L1219.1 51.0991L1216.67 48.0968L1215.47 46.6174M1220.34 52.6217H1272.15M1220.34 52.6217H1168.52M1272.15 52.6217L1269.93 50.3437L1268.47 48.8428L1266.31 46.6174M1272.15 52.6217H1323.97M1331.05 58.8611H1383.87M1331.05 58.8611L1323.97 52.6217M1392.29 65.3484H1446.17M1392.29 65.3484L1383.87 58.8611M1215.47 46.6174H1266.31M1215.47 46.6174L1214.28 45.1506L1210.78 40.8343M1266.31 46.6174L1260.69 40.8343M1266.31 46.6174H1317.15M1210.78 40.8343H1260.69M1210.78 40.8343L1207.38 36.6344L1206.26 35.2607M1260.69 40.8343L1258.63 38.7201L1257.27 37.3268L1255.26 35.2607M1260.69 40.8343H1310.59M1317.15 46.6174L1310.59 40.8343M1317.15 46.6174L1321.38 50.3437L1322.24 51.0991L1323.97 52.6217M1317.15 46.6174H1367.99M1206.26 35.2607H1255.26M1206.26 35.2607H1157.26M1206.26 35.2607L1201.91 29.8852M1255.26 35.2607L1252.63 32.5489L1251.97 31.8778L1250.04 29.8852M1255.26 35.2607H1304.27M1310.59 40.8343L1304.27 35.2607M1310.59 40.8343H1360.5M1323.97 52.6217H1375.78M1367.99 46.6174H1418.83M1367.99 46.6174L1360.5 40.8343M1367.99 46.6174L1375.78 52.6217M1157.26 35.2607L1156.38 33.8982L1153.78 29.8852M1201.91 29.8852L1197.7 24.6972M1201.91 29.8852H1250.04M1201.91 29.8852H1153.78M1250.04 29.8852L1247.49 27.2679L1244.99 24.6972M1250.04 29.8852H1298.17M1304.27 35.2607H1353.26M1304.27 35.2607L1299.67 31.2104L1298.17 29.8852M1360.5 40.8343H1410.39M1360.5 40.8343L1353.26 35.2607M1197.7 24.6972H1244.99M1197.7 24.6972L1195.15 21.5461L1193.64 19.6876M1244.99 24.6972L1241.32 20.9243L1240.72 20.3042L1240.12 19.6876M1244.99 24.6972H1292.28M1193.64 19.6876H1240.12M1240.12 19.6876H1286.59M1292.28 24.6972L1288 20.9243L1286.59 19.6876M1292.28 24.6972L1297.42 29.2262L1298.17 29.8852M1292.28 24.6972H1339.57M1286.59 19.6876H1333.07M1286.59 19.6876L1281.1 14.8477M1298.17 29.8852H1346.3M1339.57 24.6972H1386.86M1339.57 24.6972L1333.07 19.6876M1339.57 24.6972L1346.3 29.8852M1333.07 19.6876H1379.54M1333.07 19.6876L1328.34 16.0421L1326.79 14.8477M1281.1 14.8477H1326.79M1889.83 369.439L1855.73 346.066M1889.83 369.439H1920.74M1889.83 369.439L1920.74 390.626M1855.73 346.066L1824.05 324.349M1855.73 346.066H1756.34M1855.73 346.066H1920.74M1920.74 369.439V346.066M1920.74 369.439V390.626M1920.74 390.626V394.664M1756.34 346.066L1728.18 324.349M1824.05 324.349L1794.53 304.121M1824.05 324.349H1919.91M1824.05 324.349H1728.18M1920.74 346.066V324.864M1920.74 394.664V421.971M1794.53 304.121H1887.11M1794.53 304.121L1766.97 285.226M1887.11 304.121L1856.49 285.226M1887.11 304.121L1919.91 324.349M1887.11 304.121H1920.74M1766.97 285.226H1856.49M1766.97 285.226L1741.17 267.545M1856.49 285.226L1827.82 267.545M1856.49 285.226H1920.74M1919.91 324.349H1920.74M1919.91 324.349L1920.74 324.864M1920.74 304.121V285.226M1920.74 304.121V324.349M1741.17 267.545H1827.82M1741.17 267.545H1654.51M1741.17 267.545L1716.97 250.96M1827.82 267.545L1800.94 250.96M1827.82 267.545H1914.47M1920.74 285.226V271.058M1920.74 324.349V324.864M1654.51 267.545L1633.01 250.96M1716.97 250.96L1694.23 235.373M1716.97 250.96H1800.94M1716.97 250.96H1633.01M1800.94 250.96L1775.67 235.373M1800.94 250.96H1884.9M1914.47 267.545L1884.9 250.96M1914.47 267.545L1920.74 271.058M1914.47 267.545H1920.74M1920.74 271.058V267.545M1694.23 235.373H1775.67M1694.23 235.373L1672.82 220.697M1775.67 235.373L1751.87 220.697M1775.67 235.373H1857.11M1672.82 220.697H1751.87M1672.82 220.697L1652.62 206.853M1751.87 220.697L1729.43 206.853M1751.87 220.697H1830.94M1857.11 235.373L1830.94 220.697M1857.11 235.373L1884.9 250.96M1857.11 235.373H1920.74M1652.62 206.853H1729.43M1652.62 206.853H1575.81M1652.62 206.853L1633.54 193.775M1729.43 206.853L1708.23 193.775M1729.43 206.853H1806.26M1830.94 220.697L1806.26 206.853M1830.94 220.697H1910.01M1884.9 250.96H1920.74M1920.74 235.373V226.219M1920.74 235.373V238.108V250.96M1575.81 206.853L1558.83 193.775M1633.54 193.775L1615.47 181.398M1633.54 193.775H1708.23M1633.54 193.775H1558.83M1708.23 193.775L1688.17 181.398M1708.23 193.775H1782.93M1806.26 206.853L1782.93 193.775M1806.26 206.853H1883.07M1910.01 220.697L1883.07 206.853M1910.01 220.697H1920.74M1910.01 220.697L1920.74 226.219M1615.47 181.398H1688.17M1615.47 181.398L1598.37 169.669M1688.17 181.398L1669.15 169.669M1688.17 181.398H1760.86M1598.37 169.669H1669.15M1598.37 169.669L1582.13 158.538M1669.15 169.669L1651.11 158.538M1669.15 169.669H1739.95M1760.86 181.398L1739.95 169.669M1760.86 181.398L1782.93 193.775M1760.86 181.398H1833.55M1582.13 158.538H1651.11M1582.13 158.538H1513.14M1582.13 158.538L1566.7 147.961M1651.11 158.538L1633.97 147.961M1651.11 158.538H1720.1M1739.95 169.669L1720.1 158.538M1739.95 169.669H1810.74M1782.93 193.775H1857.63M1833.55 181.398H1906.25M1833.55 181.398L1810.74 169.669M1833.55 181.398L1857.63 193.775M1513.14 158.538L1499.42 147.961M1566.7 147.961L1552.01 137.896M1566.7 147.961H1633.97M1566.7 147.961H1499.42M1633.97 147.961L1617.65 137.896M1633.97 147.961H1701.23M1720.1 158.538L1701.23 147.961M1720.1 158.538H1789.09M1810.74 169.669H1881.53M1810.74 169.669L1789.09 158.538M1552.01 137.896H1617.65M1552.01 137.896L1538.02 128.308M1617.65 137.896L1602.11 128.308M1617.65 137.896H1683.29M1538.02 128.308H1602.11M1538.02 128.308L1524.69 119.164M1602.11 128.308L1587.29 119.164M1602.11 128.308H1666.19M1683.29 137.896L1666.19 128.308M1683.29 137.896L1701.23 147.961M1683.29 137.896H1748.93M1524.69 119.164H1587.29M1524.69 119.164H1462.07M1524.69 119.164L1511.94 110.433M1587.29 119.164L1573.13 110.433M1587.29 119.164H1649.89M1666.19 128.308L1649.89 119.164M1666.19 128.308H1730.27M1701.23 147.961H1768.5M1748.93 137.896H1814.57M1748.93 137.896L1730.27 128.308M1748.93 137.896L1768.5 147.961M1462.07 119.164L1450.75 110.433M1511.94 110.433L1499.77 102.088M1511.94 110.433H1573.13M1511.94 110.433H1450.75M1573.13 110.433L1559.61 102.088M1573.13 110.433H1634.31M1649.89 119.164H1712.49M1649.89 119.164L1634.31 110.433M1730.27 128.308H1794.37M1730.27 128.308L1712.49 119.164M1499.77 102.088H1559.61M1499.77 102.088L1488.11 94.1049M1559.61 102.088L1546.66 94.1049M1559.61 102.088H1619.43M1488.11 94.1049H1546.66M1488.11 94.1049L1476.97 86.4591M1546.66 94.1049L1534.26 86.4591M1546.66 94.1049H1605.19M1619.43 102.088L1605.19 94.1049M1619.43 102.088L1634.31 110.433M1619.43 102.088H1679.27M1476.97 86.4591H1534.26M1476.97 86.4591H1419.66M1476.97 86.4591L1466.27 79.1303M1534.26 86.4591L1522.38 79.1303M1534.26 86.4591H1591.57M1605.19 94.1049L1591.57 86.4591M1605.19 94.1049H1663.74M1634.31 110.433H1695.5M1679.27 102.088H1739.1M1679.27 102.088L1663.74 94.1049M1679.27 102.088L1695.5 110.433M1419.66 86.4591L1410.15 79.1303M1466.27 79.1303L1456.02 72.0993M1466.27 79.1303H1522.38M1466.27 79.1303H1410.15M1522.38 79.1303L1510.98 72.0993M1522.38 79.1303H1578.5M1591.57 86.4591H1648.86M1591.57 86.4591L1578.5 79.1303M1663.74 94.1049H1722.27M1663.74 94.1049L1648.86 86.4591M1456.02 72.0993H1510.98M1456.02 72.0993L1446.17 65.3484M1510.98 72.0993L1500.05 65.3484M1510.98 72.0993H1565.95M1446.17 65.3484H1500.05M1446.17 65.3484L1436.7 58.8611M1500.05 65.3484L1489.53 58.8611M1500.05 65.3484H1553.93M1565.95 72.0993L1553.93 65.3484M1565.95 72.0993L1578.5 79.1303M1565.95 72.0993H1620.93M1436.7 58.8611H1489.53M1436.7 58.8611H1383.87M1436.7 58.8611L1427.59 52.6217M1489.53 58.8611L1480.66 53.3889L1479.41 52.6217M1489.53 58.8611H1542.35M1553.93 65.3484L1542.35 58.8611M1553.93 65.3484H1607.79M1578.5 79.1303H1634.61M1620.93 72.0993H1675.9M1620.93 72.0993L1607.79 65.3484M1620.93 72.0993L1634.61 79.1303M1383.87 58.8611L1375.78 52.6217M1427.59 52.6217L1422.09 48.8428L1420.99 48.0968L1418.83 46.6174M1427.59 52.6217H1479.41M1427.59 52.6217H1375.78M1479.41 52.6217L1469.67 46.6174M1479.41 52.6217H1531.23M1542.35 58.8611H1595.18M1542.35 58.8611L1531.23 52.6217M1607.79 65.3484H1661.67M1607.79 65.3484L1595.18 58.8611M1418.83 46.6174H1469.67M1418.83 46.6174L1410.39 40.8343M1469.67 46.6174L1460.3 40.8343M1469.67 46.6174H1520.51M1410.39 40.8343H1460.3M1410.39 40.8343L1402.26 35.2607M1460.3 40.8343L1451.27 35.2607M1460.3 40.8343H1510.21M1520.51 46.6174L1510.21 40.8343M1520.51 46.6174L1531.23 52.6217M1520.51 46.6174H1571.37M1402.26 35.2607H1451.27M1402.26 35.2607H1353.26M1402.26 35.2607L1394.42 29.8852M1451.27 35.2607L1442.55 29.8852M1451.27 35.2607H1500.27M1510.21 40.8343L1500.27 35.2607M1510.21 40.8343H1560.11M1531.23 52.6217H1583.05M1571.37 46.6174H1622.21M1571.37 46.6174L1561.5 41.545L1560.11 40.8343M1571.37 46.6174L1583.05 52.6217M1353.26 35.2607L1346.3 29.8852M1394.42 29.8852L1386.86 24.6972M1394.42 29.8852H1442.55M1394.42 29.8852H1346.3M1442.55 29.8852L1434.14 24.6972M1442.55 29.8852H1490.69M1500.27 35.2607H1549.27M1500.27 35.2607L1490.69 29.8852M1560.11 40.8343H1610.02M1560.11 40.8343L1549.27 35.2607M1386.86 24.6972H1434.14M1386.86 24.6972L1379.54 19.6876M1434.14 24.6972L1428.02 20.9243L1427.02 20.3042L1426.02 19.6876M1434.14 24.6972H1481.43M1379.54 19.6876H1426.02M1426.02 19.6876H1472.5M1481.43 24.6972L1472.5 19.6876M1481.43 24.6972L1490.69 29.8852M1481.43 24.6972H1528.71M1472.5 19.6876H1518.98M1472.5 19.6876L1463.87 14.8477M1490.69 29.8852H1538.81M1528.71 24.6972H1576.01M1528.71 24.6972L1518.98 19.6876M1528.71 24.6972L1538.81 29.8852M1518.98 19.6876H1565.45M1518.98 19.6876L1509.55 14.8477M1463.87 14.8477H1509.55M1906.25 181.398L1881.53 169.669M1906.25 181.398L1920.74 188.278M1906.25 181.398H1920.74M1881.53 169.669L1858.07 158.538M1881.53 169.669H1920.74M1920.74 188.278V181.398M1920.74 188.278V193.775M1920.74 181.398V169.669M1858.07 158.538L1835.78 147.961M1858.07 158.538H1789.09M1858.07 158.538H1920.74M1920.74 169.669V158.538M1857.63 193.775L1883.07 206.853M1857.63 193.775H1920.74M1920.74 193.775V206.853M1789.09 158.538L1768.5 147.961M1835.78 147.961L1814.57 137.896M1835.78 147.961H1903.05M1835.78 147.961H1768.5M1920.74 158.538V155.757M1814.57 137.896H1880.21M1814.57 137.896L1794.37 128.308M1880.21 137.896L1858.45 128.308M1880.21 137.896L1903.05 147.961M1880.21 137.896H1920.74M1794.37 128.308H1858.45M1794.37 128.308L1775.09 119.164M1858.45 128.308L1837.69 119.164M1858.45 128.308H1920.74M1903.05 147.961L1920.74 155.757M1903.05 147.961H1920.74M1920.74 137.896H1921.23M1920.74 137.896V128.308M1920.74 137.896V147.961M1775.09 119.164H1837.69M1775.09 119.164H1712.49M1775.09 119.164L1756.69 110.433M1837.69 119.164L1817.87 110.433M1837.69 119.164H1900.3M1920.74 128.308V127.573M1920.74 155.757L1920.94 155.843M1920.74 155.757V147.961M1712.49 119.164L1695.5 110.433M1756.69 110.433L1739.1 102.088M1756.69 110.433H1817.87M1756.69 110.433H1695.5M1817.87 110.433L1798.94 102.088M1817.87 110.433H1879.06M1900.3 119.164L1879.06 110.433M1900.3 119.164H1920.74M1900.3 119.164L1920.74 127.573M1920.74 127.573V119.164M1739.1 102.088H1798.94M1739.1 102.088L1722.27 94.1049M1798.94 102.088L1780.82 94.1049M1798.94 102.088H1858.77M1722.27 94.1049H1780.82M1722.27 94.1049L1706.17 86.4591M1780.82 94.1049L1763.47 86.4591M1780.82 94.1049H1839.35M1858.77 102.088L1839.35 94.1049M1858.77 102.088L1879.06 110.433M1858.77 102.088H1918.61M1706.17 86.4591H1763.47M1706.17 86.4591H1648.86M1706.17 86.4591L1690.73 79.1303M1763.47 86.4591L1746.83 79.1303M1763.47 86.4591H1820.77M1839.35 94.1049L1820.77 86.4591M1839.35 94.1049H1897.9M1879.06 110.433H1920.74M1918.61 102.088L1897.9 94.1049M1918.61 102.088L1920.74 102.912M1918.61 102.088H1920.74M1648.86 86.4591L1634.61 79.1303M1690.73 79.1303L1675.9 72.0993M1690.73 79.1303H1746.83M1690.73 79.1303H1634.61M1746.83 79.1303L1730.87 72.0993M1746.83 79.1303H1802.95M1820.77 86.4591L1802.95 79.1303M1820.77 86.4591H1878.07M1897.9 94.1049L1878.07 86.4591M1897.9 94.1049H1920.74M1675.9 72.0993H1730.87M1675.9 72.0993L1661.67 65.3484M1730.87 72.0993L1715.55 65.3484M1730.87 72.0993H1785.85M1661.67 65.3484H1715.55M1661.67 65.3484L1648.01 58.8611M1715.55 65.3484L1700.83 58.8611M1715.55 65.3484H1769.43M1785.85 72.0993L1769.43 65.3484M1785.85 72.0993L1802.95 79.1303M1785.85 72.0993H1840.82M1648.01 58.8611H1700.83M1648.01 58.8611H1595.18M1648.01 58.8611L1634.86 52.6217M1700.83 58.8611L1686.67 52.6217M1700.83 58.8611H1753.66M1769.43 65.3484L1753.66 58.8611M1769.43 65.3484H1823.31M1802.95 79.1303H1859.06M1840.82 72.0993H1895.79M1840.82 72.0993L1823.31 65.3484M1840.82 72.0993L1859.06 79.1303M1595.18 58.8611L1583.05 52.6217M1634.86 52.6217L1622.21 46.6174M1634.86 52.6217H1686.67M1634.86 52.6217H1583.05M1686.67 52.6217L1673.05 46.6174M1686.67 52.6217H1738.49M1753.66 58.8611H1806.49M1753.66 58.8611L1738.49 52.6217M1823.31 65.3484H1877.19M1823.31 65.3484L1806.49 58.8611M1622.21 46.6174H1673.05M1622.21 46.6174L1610.02 40.8343M1673.05 46.6174L1659.91 40.8343M1673.05 46.6174H1723.89M1610.02 40.8343H1659.91M1610.02 40.8343L1598.27 35.2607M1659.91 40.8343L1647.27 35.2607M1659.91 40.8343H1709.82M1723.89 46.6174L1709.82 40.8343M1723.89 46.6174L1738.49 52.6217M1723.89 46.6174H1774.73M1598.27 35.2607H1647.27M1598.27 35.2607H1549.27M1598.27 35.2607L1586.94 29.8852M1647.27 35.2607L1635.07 29.8852M1647.27 35.2607H1696.27M1709.82 40.8343L1696.27 35.2607M1709.82 40.8343H1759.73M1738.49 52.6217H1790.3M1774.73 46.6174H1825.57M1774.73 46.6174L1759.73 40.8343M1774.73 46.6174L1790.3 52.6217M1549.27 35.2607L1538.81 29.8852M1586.94 29.8852L1576.01 24.6972M1586.94 29.8852H1635.07M1586.94 29.8852H1538.81M1635.07 29.8852L1623.3 24.6972M1635.07 29.8852H1683.19M1696.27 35.2607H1745.27M1696.27 35.2607L1683.19 29.8852M1759.73 40.8343H1809.63M1759.73 40.8343L1745.27 35.2607M1576.01 24.6972H1623.3M1576.01 24.6972L1565.45 19.6876M1623.3 24.6972L1611.93 19.6876M1623.3 24.6972H1670.58M1565.45 19.6876H1611.93M1611.93 19.6876H1658.41M1670.58 24.6972L1658.41 19.6876M1670.58 24.6972L1683.19 29.8852M1670.58 24.6972H1717.87M1658.41 19.6876H1704.87M1658.41 19.6876L1646.63 14.8477M1683.19 29.8852H1731.33M1717.87 24.6972H1765.17M1717.87 24.6972L1704.87 19.6876M1717.87 24.6972L1731.33 29.8852M1704.87 19.6876H1751.35M1704.87 19.6876L1692.33 14.8477M1646.63 14.8477H1692.33M1895.79 72.0993L1877.19 65.3484M1895.79 72.0993L1915.17 79.1303M1895.79 72.0993H1920.74M1877.19 65.3484L1859.31 58.8611M1877.19 65.3484H1920.74M1915.17 79.1303H1859.06M1915.17 79.1303H1920.74M1915.17 79.1303L1920.74 81.1517M1920.74 72.0993V65.3484M1920.74 72.0993V79.1303M1859.31 58.8611H1912.14M1859.31 58.8611H1806.49M1859.31 58.8611L1842.11 52.6217M1920.74 65.3484V61.8097M1859.06 79.1303L1878.07 86.4591M1920.74 79.1303V81.1517M1920.74 81.1517V86.4591M1806.49 58.8611L1790.3 52.6217M1912.14 58.8611L1893.93 52.6217M1912.14 58.8611L1920.74 61.8097M1912.14 58.8611H1920.74M1842.11 52.6217L1825.57 46.6174M1842.11 52.6217H1893.93M1842.11 52.6217H1790.3M1920.74 61.8097V58.8611M1825.57 46.6174H1876.41M1825.57 46.6174L1809.63 40.8343M1876.41 46.6174L1859.54 40.8343M1876.41 46.6174L1893.93 52.6217M1876.41 46.6174H1920.74M1809.63 40.8343H1859.54M1809.63 40.8343L1794.27 35.2607M1859.54 40.8343L1843.27 35.2607M1859.54 40.8343H1909.45M1893.93 52.6217H1920.74M1920.74 46.6174H1920.9M1920.74 46.6174V44.5032M1920.74 46.6174V52.6217M1794.27 35.2607H1843.27M1794.27 35.2607H1745.27M1794.27 35.2607L1779.46 29.8852M1843.27 35.2607L1827.58 29.8852M1843.27 35.2607H1892.27M1909.45 40.8343L1892.27 35.2607M1909.45 40.8343L1920.74 44.5032M1909.45 40.8343H1920.74M1920.74 52.6217V58.8611M1920.74 44.5032V40.8343M1745.27 35.2607L1731.33 29.8852M1779.46 29.8852L1765.17 24.6972M1779.46 29.8852H1827.58M1779.46 29.8852H1731.33M1827.58 29.8852L1812.45 24.6972M1827.58 29.8852H1875.71M1892.27 35.2607L1875.71 29.8852M1892.27 35.2607H1920.74M1920.74 40.8343V35.2607M1765.17 24.6972H1812.45M1765.17 24.6972L1751.35 19.6876M1812.45 24.6972L1797.83 19.6876M1812.45 24.6972H1859.74M1751.35 19.6876H1797.83M1797.83 19.6876H1844.31M1859.74 24.6972L1844.31 19.6876M1859.74 24.6972L1875.71 29.8852M1859.74 24.6972H1907.02M1844.31 19.6876H1890.78M1844.31 19.6876L1829.39 14.8477M1875.71 29.8852H1920.74M1907.02 24.6972L1890.78 19.6876M1907.02 24.6972L1920.74 28.928M1907.02 24.6972H1920.74M1890.78 19.6876L1875.09 14.8477M1890.78 19.6876H1920.74M1829.39 14.8477H1875.09M1920.74 29.8852V28.928M1920.74 29.8852V35.2607M1920.74 28.928V24.6972M1920.74 24.6972V19.6876M1875.09 14.8477H1920.74M1920.74 19.6876V14.8477M1878.07 86.4591H1920.74M1920.74 86.4591H1921.05M1920.74 86.4591V94.1049M1920.74 94.1049V102.088M1920.74 110.433V102.912M1920.74 110.433V119.164M1920.74 102.912L1921.26 103.111M1920.74 102.912V102.088M1883.07 206.853H1920.74M1920.74 206.853V220.697M1920.74 220.697V226.219M1920.74 250.96V267.545M1854.78 421.971L1893.25 451.631M1854.78 421.971H1920.74M1893.25 451.631H1920.74M1893.25 451.631L1920.74 472.833M1920.74 421.971V451.631M1920.74 451.631V472.833M1920.74 578.523V558.195M1920.74 578.523V601.105M1920.74 601.105V601.26H1.77674V601.105M1524.18 601.105H1383.45M961.26 601.105H820.529M398.34 601.105H257.611M66.7897 346.066H1.77674M1.77674 451.631V421.971M64.4509 158.538H1.77674M1.77674 206.853V193.775M1.77674 193.775V188.278M1.77674 346.066V369.439M1.77674 369.439V390.626M1.77674 86.4591V81.1517M1.77674 86.4591H1.4769M7.34873 79.1303L1.77674 81.1517M7.34873 79.1303H1.77674M1.77674 158.538V169.669M1.77674 169.669V181.398M1.77674 181.398V188.278M1.77674 61.8097V65.3484M1.77674 61.8097V58.8611M1.77674 65.3484V72.0993M1.77674 72.0993V79.1303M1.77674 81.1517V79.1303M1.77674 14.8477H1.73776L1.77674 14.8362M1.77674 14.8477V14.8362" stroke="url(#paint0_radial_33_7581)" stroke-opacity="0.51" stroke-width="2.51933" stroke-miterlimit="10" stroke-linecap="round" stroke-linejoin="round"/>
<defs>
<radialGradient id="paint0_radial_33_7581" cx="0" cy="0" r="1" gradientUnits="userSpaceOnUse" gradientTransform="translate(961.26 647.849) rotate(-90) scale(1007.92 3225.36)">
<stop stop-color="#EEEEEE" stop-opacity="0.54"/>
<stop offset="0.65" stop-color="#CED2DF" stop-opacity="0"/>
</radialGradient>
</defs>
</svg>
