<svg width="393" height="218" viewBox="0 0 393 218" fill="none" xmlns="http://www.w3.org/2000/svg">
<g opacity="0.1" clip-path="url(#clip0_33_12223)">
<mask id="mask0_33_12223" style="mask-type:luminance" maskUnits="userSpaceOnUse" x="0" y="0" width="393" height="218">
<path d="M0 0H393V218H0V0Z" fill="white"/>
</mask>
<g mask="url(#mask0_33_12223)">
<g opacity="0.3">
<g opacity="0.6" style="mix-blend-mode:multiply">
<path d="M1348.19 -0.351375C1024.6 -0.351375 843.171 -0.343375 519.577 -0.343375C195.983 -0.343375 14.556 -0.359375 -309.039 -0.359375C14.556 -0.359375 195.983 101.615 519.577 101.615C843.171 101.615 1024.6 -0.351375 1348.19 -0.351375ZM1348.19 -0.351375C1024.6 -0.351375 843.171 14.2216 519.577 14.2216C195.983 14.2216 14.556 -0.358375 -309.039 -0.358375M1348.19 -0.351375C1024.6 -0.351375 843.171 28.7876 519.577 28.7876C195.983 28.7876 14.556 -0.358375 -309.039 -0.358375M1348.19 -0.351375C1024.6 -0.351375 843.171 43.3526 519.577 43.3526C195.983 43.3526 14.556 -0.358375 -309.039 -0.358375M1348.19 -0.351375C1024.6 -0.351375 843.171 57.9186 519.577 57.9186C195.983 57.9186 14.556 -0.358375 -309.039 -0.358375M1348.19 -0.351375C1024.6 -0.351375 843.171 72.4846 519.577 72.4846C195.983 72.4846 14.556 -0.358375 -309.039 -0.358375M-309.039 -0.358375C14.556 -0.358375 195.983 218.14 519.577 218.14C843.171 218.14 1024.6 -0.351375 1348.19 -0.351375C1024.6 -0.351375 843.171 116.181 519.577 116.181C195.983 116.181 14.556 -0.359375 -309.039 -0.358375ZM1348.19 -0.351375C1024.6 -0.351375 843.171 130.747 519.577 130.747C195.983 130.747 14.556 -0.358375 -309.039 -0.358375M1348.19 -0.351375C1024.6 -0.351375 843.171 145.312 519.577 145.312C195.983 145.312 14.556 -0.358375 -309.039 -0.358375M1348.19 -0.351375C1024.6 -0.351375 843.171 159.878 519.577 159.878C195.983 159.878 14.556 -0.358375 -309.039 -0.358375M1348.19 -0.351375C1024.6 -0.351375 843.171 174.444 519.577 174.444C195.983 174.444 14.556 -0.358375 -309.039 -0.358375M1348.19 -0.351375C1024.6 -0.351375 843.171 189.009 519.577 189.009C195.983 189.009 14.556 -0.358375 -309.039 -0.358375M1348.19 -0.351375C1024.6 -0.351375 843.171 203.575 519.577 203.575C195.983 203.575 14.556 -0.358375 -309.039 -0.358375M-309.039 -0.358375C14.556 -0.358375 195.983 87.0496 519.577 87.0496C843.171 87.0496 1024.6 -0.349375 1348.19 -0.349375" stroke="black" stroke-width="1.696"/>
</g>
<g opacity="0.4" style="mix-blend-mode:multiply">
<path d="M295 -52.993C181.162 -52.993 117.338 -52.9859 3.49999 -52.9859C-110.338 -52.9859 -174.162 -53 -288 -53C-174.162 -53 -110.338 36.6069 3.49999 36.6069C117.338 36.6069 181.162 -52.993 295 -52.993ZM295 -52.993C181.162 -52.993 117.338 -40.1873 3.49999 -40.1873C-110.338 -40.1873 -174.162 -52.9991 -288 -52.9991M295 -52.993C181.162 -52.993 117.338 -27.3879 3.49999 -27.3879C-110.338 -27.3879 -174.162 -52.9991 -288 -52.9991M295 -52.993C181.162 -52.993 117.338 -14.5893 3.49999 -14.5893C-110.338 -14.5893 -174.162 -52.9991 -288 -52.9991M295 -52.993C181.162 -52.993 117.338 -1.78981 3.49999 -1.78981C-110.338 -1.78981 -174.162 -52.9991 -288 -52.9991M295 -52.993C181.162 -52.993 117.338 11.0097 3.49999 11.0097C-110.338 11.0097 -174.162 -52.9991 -288 -52.9991M-288 -52.9991C-174.162 -52.9991 -110.338 139 3.49999 139C117.338 139 181.162 -52.993 295 -52.993C181.162 -52.993 117.338 49.4063 3.49999 49.4063C-110.338 49.4063 -174.162 -53 -288 -52.9991ZM295 -52.993C181.162 -52.993 117.338 62.2058 3.49999 62.2058C-110.338 62.2058 -174.162 -52.9991 -288 -52.9991M295 -52.993C181.162 -52.993 117.338 75.0044 3.49999 75.0044C-110.338 75.0044 -174.162 -52.9991 -288 -52.9991M295 -52.993C181.162 -52.993 117.338 87.8039 3.49999 87.8039C-110.338 87.8039 -174.162 -52.9991 -288 -52.9991M295 -52.993C181.162 -52.993 117.338 100.603 3.49999 100.603C-110.338 100.603 -174.162 -52.9991 -288 -52.9991M295 -52.993C181.162 -52.993 117.338 113.402 3.49999 113.402C-110.338 113.402 -174.162 -52.9991 -288 -52.9991M295 -52.993C181.162 -52.993 117.338 126.201 3.49999 126.201C-110.338 126.201 -174.162 -52.9991 -288 -52.9991M-288 -52.9991C-174.162 -52.9991 -110.338 23.8083 3.49999 23.8083C117.338 23.8083 181.162 -52.9912 295 -52.9912" stroke="black" stroke-width="1.696"/>
</g>
</g>
</g>
</g>
<defs>
<clipPath id="clip0_33_12223">
<rect width="393" height="218" fill="white"/>
</clipPath>
</defs>
</svg>
